<svg xmlns="http://www.w3.org/2000/svg" fill="none" viewBox="2.87 1.96 351.13 104.04">
<mask id="path-1-outside-1_420_589" maskUnits="userSpaceOnUse" x="84" y="11" width="270" height="95" fill="black">
<rect fill="white" x="84" y="11" width="270" height="95"/>
<path d="M94.79 96V36.16H104.95V55.12L103.59 55.04C103.803 50.6667 104.71 46.9867 106.31 44C107.91 40.96 110.07 38.6933 112.79 37.2C115.51 35.6533 118.577 34.88 121.99 34.88C125.03 34.88 127.777 35.44 130.23 36.56C132.737 37.68 134.87 39.2533 136.63 41.28C138.443 43.2533 139.803 45.6 140.71 48.32C141.67 50.9867 142.15 53.92 142.15 57.12V58.96C142.15 62.1067 141.697 65.0667 140.79 67.84C139.883 70.56 138.55 72.9333 136.79 74.96C135.083 76.9867 132.977 78.5867 130.47 79.76C128.017 80.88 125.19 81.44 121.99 81.44C118.683 81.44 115.697 80.7733 113.03 79.44C110.417 78.0533 108.31 75.9733 106.71 73.2C105.11 70.3733 104.23 66.8 104.07 62.48L107.59 67.28V96H94.79ZM118.39 70.72C120.577 70.72 122.47 70.1867 124.07 69.12C125.723 68.0533 127.003 66.56 127.91 64.64C128.817 62.72 129.27 60.5067 129.27 58C129.27 55.4933 128.817 53.3067 127.91 51.44C127.003 49.5733 125.75 48.1333 124.15 47.12C122.55 46.0533 120.63 45.52 118.39 45.52C116.47 45.52 114.657 45.9733 112.95 46.88C111.243 47.7867 109.857 49.0933 108.79 50.8C107.777 52.4533 107.27 54.48 107.27 56.88V59.84C107.27 62.1333 107.803 64.1067 108.87 65.76C109.99 67.36 111.403 68.5867 113.11 69.44C114.817 70.2933 116.577 70.72 118.39 70.72ZM168.56 80.56C164.133 80.56 160.56 80.0267 157.84 78.96C155.12 77.84 153.12 76 151.84 73.44C150.613 70.8267 150 67.3067 150 62.88V24.32H161.92V63.36C161.92 65.44 162.453 67.04 163.52 68.16C164.64 69.2267 166.213 69.76 168.24 69.76H174.72V80.56H168.56ZM143.36 45.52V36.16H174.72V45.52H143.36ZM207.251 80V67.04H205.091V52.96C205.091 50.72 204.558 49.04 203.491 47.92C202.425 46.8 200.718 46.24 198.371 46.24C197.198 46.24 195.651 46.2667 193.731 46.32C191.811 46.3733 189.838 46.4533 187.811 46.56C185.785 46.6667 183.945 46.7733 182.291 46.88V36.08C183.518 35.9733 184.958 35.8667 186.611 35.76C188.265 35.6533 189.971 35.5733 191.731 35.52C193.491 35.4667 195.145 35.44 196.691 35.44C201.171 35.44 204.931 36.08 207.971 37.36C211.065 38.64 213.411 40.5867 215.011 43.2C216.611 45.76 217.411 49.0667 217.411 53.12V80H207.251ZM193.251 81.12C190.105 81.12 187.331 80.56 184.931 79.44C182.585 78.32 180.745 76.72 179.411 74.64C178.078 72.5067 177.411 69.9733 177.411 67.04C177.411 63.84 178.238 61.2267 179.891 59.2C181.545 57.12 183.865 55.6 186.851 54.64C189.838 53.6267 193.278 53.12 197.171 53.12H206.531V60.24H197.091C194.851 60.24 193.118 60.8 191.891 61.92C190.718 62.9867 190.131 64.4533 190.131 66.32C190.131 68.08 190.718 69.52 191.891 70.64C193.118 71.7067 194.851 72.24 197.091 72.24C198.531 72.24 199.811 72 200.931 71.52C202.105 70.9867 203.065 70.1067 203.811 68.88C204.558 67.6533 204.985 65.9467 205.091 63.76L208.131 66.96C207.865 70 207.118 72.56 205.891 74.64C204.718 76.72 203.065 78.32 200.931 79.44C198.851 80.56 196.291 81.12 193.251 81.12ZM252.831 81.44C249.258 81.44 246.111 80.6933 243.391 79.2C240.671 77.6533 238.538 75.44 236.991 72.56C235.445 69.68 234.618 66.16 234.511 62H236.031V80H225.871V21.6H238.671V51.28L235.631 55.12C235.791 50.6933 236.618 46.9867 238.111 44C239.658 40.96 241.765 38.6933 244.431 37.2C247.098 35.6533 250.138 34.88 253.551 34.88C256.538 34.88 259.231 35.44 261.631 36.56C264.085 37.6267 266.165 39.1733 267.871 41.2C269.578 43.1733 270.885 45.52 271.791 48.24C272.751 50.96 273.231 53.92 273.231 57.12V58.88C273.231 62.08 272.751 65.04 271.791 67.76C270.885 70.48 269.525 72.88 267.711 74.96C265.951 76.9867 263.818 78.5867 261.311 79.76C258.805 80.88 255.978 81.44 252.831 81.44ZM249.471 70.72C251.658 70.72 253.551 70.1867 255.151 69.12C256.805 68.0533 258.085 66.56 258.991 64.64C259.898 62.6667 260.351 60.4533 260.351 58C260.351 55.4933 259.898 53.3067 258.991 51.44C258.085 49.5733 256.805 48.1333 255.151 47.12C253.551 46.0533 251.658 45.52 249.471 45.52C247.551 45.52 245.738 45.9733 244.031 46.88C242.325 47.7867 240.938 49.0933 239.871 50.8C238.858 52.4533 238.351 54.48 238.351 56.88V59.84C238.351 62.1333 238.885 64.1067 239.951 65.76C241.071 67.36 242.485 68.5867 244.191 69.44C245.898 70.2933 247.658 70.72 249.471 70.72ZM280.281 80V21.6H293.161V80H280.281ZM275.081 31.04V21.6H293.161V31.04H275.081ZM322.636 81.52C318.902 81.52 315.596 80.88 312.716 79.6C309.889 78.32 307.516 76.6133 305.596 74.48C303.729 72.2933 302.289 69.8667 301.276 67.2C300.316 64.48 299.836 61.7067 299.836 58.88V57.28C299.836 54.3467 300.316 51.5467 301.276 48.88C302.289 46.16 303.729 43.7333 305.596 41.6C307.462 39.4667 309.782 37.7867 312.556 36.56C315.382 35.28 318.582 34.64 322.156 34.64C326.849 34.64 330.796 35.7067 333.996 37.84C337.249 39.92 339.729 42.6667 341.436 46.08C343.142 49.44 343.996 53.12 343.996 57.12V61.44H305.196V54.16H336.236L332.076 57.52C332.076 54.9067 331.702 52.6667 330.956 50.8C330.209 48.9333 329.089 47.52 327.596 46.56C326.156 45.5467 324.342 45.04 322.156 45.04C319.916 45.04 318.022 45.5467 316.476 46.56C314.929 47.5733 313.756 49.0667 312.956 51.04C312.156 52.96 311.756 55.3333 311.756 58.16C311.756 60.7733 312.129 63.0667 312.876 65.04C313.622 66.96 314.796 68.4533 316.396 69.52C317.996 70.5867 320.076 71.12 322.636 71.12C324.982 71.12 326.902 70.6667 328.396 69.76C329.889 68.8533 330.902 67.7333 331.436 66.4H343.196C342.556 69.3333 341.302 71.9467 339.436 74.24C337.569 76.5333 335.222 78.32 332.396 79.6C329.569 80.88 326.316 81.52 322.636 81.52Z"/>
</mask>
<path d="M94.79 96V36.16H104.95V55.12L103.59 55.04C103.803 50.6667 104.71 46.9867 106.31 44C107.91 40.96 110.07 38.6933 112.79 37.2C115.51 35.6533 118.577 34.88 121.99 34.88C125.03 34.88 127.777 35.44 130.23 36.56C132.737 37.68 134.87 39.2533 136.63 41.28C138.443 43.2533 139.803 45.6 140.71 48.32C141.67 50.9867 142.15 53.92 142.15 57.12V58.96C142.15 62.1067 141.697 65.0667 140.79 67.84C139.883 70.56 138.55 72.9333 136.79 74.96C135.083 76.9867 132.977 78.5867 130.47 79.76C128.017 80.88 125.19 81.44 121.99 81.44C118.683 81.44 115.697 80.7733 113.03 79.44C110.417 78.0533 108.31 75.9733 106.71 73.2C105.11 70.3733 104.23 66.8 104.07 62.48L107.59 67.28V96H94.79ZM118.39 70.72C120.577 70.72 122.47 70.1867 124.07 69.12C125.723 68.0533 127.003 66.56 127.91 64.64C128.817 62.72 129.27 60.5067 129.27 58C129.27 55.4933 128.817 53.3067 127.91 51.44C127.003 49.5733 125.75 48.1333 124.15 47.12C122.55 46.0533 120.63 45.52 118.39 45.52C116.47 45.52 114.657 45.9733 112.95 46.88C111.243 47.7867 109.857 49.0933 108.79 50.8C107.777 52.4533 107.27 54.48 107.27 56.88V59.84C107.27 62.1333 107.803 64.1067 108.87 65.76C109.99 67.36 111.403 68.5867 113.11 69.44C114.817 70.2933 116.577 70.72 118.39 70.72ZM168.56 80.56C164.133 80.56 160.56 80.0267 157.84 78.96C155.12 77.84 153.12 76 151.84 73.44C150.613 70.8267 150 67.3067 150 62.88V24.32H161.92V63.36C161.92 65.44 162.453 67.04 163.52 68.16C164.64 69.2267 166.213 69.76 168.24 69.76H174.72V80.56H168.56ZM143.36 45.52V36.16H174.72V45.52H143.36ZM207.251 80V67.04H205.091V52.96C205.091 50.72 204.558 49.04 203.491 47.92C202.425 46.8 200.718 46.24 198.371 46.24C197.198 46.24 195.651 46.2667 193.731 46.32C191.811 46.3733 189.838 46.4533 187.811 46.56C185.785 46.6667 183.945 46.7733 182.291 46.88V36.08C183.518 35.9733 184.958 35.8667 186.611 35.76C188.265 35.6533 189.971 35.5733 191.731 35.52C193.491 35.4667 195.145 35.44 196.691 35.44C201.171 35.44 204.931 36.08 207.971 37.36C211.065 38.64 213.411 40.5867 215.011 43.2C216.611 45.76 217.411 49.0667 217.411 53.12V80H207.251ZM193.251 81.12C190.105 81.12 187.331 80.56 184.931 79.44C182.585 78.32 180.745 76.72 179.411 74.64C178.078 72.5067 177.411 69.9733 177.411 67.04C177.411 63.84 178.238 61.2267 179.891 59.2C181.545 57.12 183.865 55.6 186.851 54.64C189.838 53.6267 193.278 53.12 197.171 53.12H206.531V60.24H197.091C194.851 60.24 193.118 60.8 191.891 61.92C190.718 62.9867 190.131 64.4533 190.131 66.32C190.131 68.08 190.718 69.52 191.891 70.64C193.118 71.7067 194.851 72.24 197.091 72.24C198.531 72.24 199.811 72 200.931 71.52C202.105 70.9867 203.065 70.1067 203.811 68.88C204.558 67.6533 204.985 65.9467 205.091 63.76L208.131 66.96C207.865 70 207.118 72.56 205.891 74.64C204.718 76.72 203.065 78.32 200.931 79.44C198.851 80.56 196.291 81.12 193.251 81.12ZM252.831 81.44C249.258 81.44 246.111 80.6933 243.391 79.2C240.671 77.6533 238.538 75.44 236.991 72.56C235.445 69.68 234.618 66.16 234.511 62H236.031V80H225.871V21.6H238.671V51.28L235.631 55.12C235.791 50.6933 236.618 46.9867 238.111 44C239.658 40.96 241.765 38.6933 244.431 37.2C247.098 35.6533 250.138 34.88 253.551 34.88C256.538 34.88 259.231 35.44 261.631 36.56C264.085 37.6267 266.165 39.1733 267.871 41.2C269.578 43.1733 270.885 45.52 271.791 48.24C272.751 50.96 273.231 53.92 273.231 57.12V58.88C273.231 62.08 272.751 65.04 271.791 67.76C270.885 70.48 269.525 72.88 267.711 74.96C265.951 76.9867 263.818 78.5867 261.311 79.76C258.805 80.88 255.978 81.44 252.831 81.44ZM249.471 70.72C251.658 70.72 253.551 70.1867 255.151 69.12C256.805 68.0533 258.085 66.56 258.991 64.64C259.898 62.6667 260.351 60.4533 260.351 58C260.351 55.4933 259.898 53.3067 258.991 51.44C258.085 49.5733 256.805 48.1333 255.151 47.12C253.551 46.0533 251.658 45.52 249.471 45.52C247.551 45.52 245.738 45.9733 244.031 46.88C242.325 47.7867 240.938 49.0933 239.871 50.8C238.858 52.4533 238.351 54.48 238.351 56.88V59.84C238.351 62.1333 238.885 64.1067 239.951 65.76C241.071 67.36 242.485 68.5867 244.191 69.44C245.898 70.2933 247.658 70.72 249.471 70.72ZM280.281 80V21.6H293.161V80H280.281ZM275.081 31.04V21.6H293.161V31.04H275.081ZM322.636 81.52C318.902 81.52 315.596 80.88 312.716 79.6C309.889 78.32 307.516 76.6133 305.596 74.48C303.729 72.2933 302.289 69.8667 301.276 67.2C300.316 64.48 299.836 61.7067 299.836 58.88V57.28C299.836 54.3467 300.316 51.5467 301.276 48.88C302.289 46.16 303.729 43.7333 305.596 41.6C307.462 39.4667 309.782 37.7867 312.556 36.56C315.382 35.28 318.582 34.64 322.156 34.64C326.849 34.64 330.796 35.7067 333.996 37.84C337.249 39.92 339.729 42.6667 341.436 46.08C343.142 49.44 343.996 53.12 343.996 57.12V61.44H305.196V54.16H336.236L332.076 57.52C332.076 54.9067 331.702 52.6667 330.956 50.8C330.209 48.9333 329.089 47.52 327.596 46.56C326.156 45.5467 324.342 45.04 322.156 45.04C319.916 45.04 318.022 45.5467 316.476 46.56C314.929 47.5733 313.756 49.0667 312.956 51.04C312.156 52.96 311.756 55.3333 311.756 58.16C311.756 60.7733 312.129 63.0667 312.876 65.04C313.622 66.96 314.796 68.4533 316.396 69.52C317.996 70.5867 320.076 71.12 322.636 71.12C324.982 71.12 326.902 70.6667 328.396 69.76C329.889 68.8533 330.902 67.7333 331.436 66.4H343.196C342.556 69.3333 341.302 71.9467 339.436 74.24C337.569 76.5333 335.222 78.32 332.396 79.6C329.569 80.88 326.316 81.52 322.636 81.52Z" fill="url(#paint0_linear_420_589)"/>
<path d="M94.79 96H84.79C84.79 101.523 89.2672 106 94.79 106V96ZM94.79 36.16V26.16C89.2672 26.16 84.79 30.6371 84.79 36.16H94.79ZM104.95 36.16H114.95C114.95 30.6371 110.473 26.16 104.95 26.16V36.16ZM104.95 55.12L104.363 65.1027C107.112 65.2645 109.807 64.2851 111.81 62.3957C113.814 60.5063 114.95 57.8741 114.95 55.12H104.95ZM103.59 55.04L93.6019 54.5528C93.3347 60.03 97.5285 64.7007 103.003 65.0227L103.59 55.04ZM106.31 44L115.125 48.7222C115.136 48.7007 115.148 48.6791 115.159 48.6575L106.31 44ZM112.79 37.2L117.603 45.9658C117.646 45.9418 117.69 45.9175 117.733 45.8929L112.79 37.2ZM130.23 36.56L126.077 45.6569C126.102 45.668 126.126 45.6791 126.151 45.6901L130.23 36.56ZM136.63 41.28L129.08 47.8369C129.141 47.9075 129.203 47.9773 129.267 48.0463L136.63 41.28ZM140.71 48.32L131.223 51.4823C131.248 51.5576 131.274 51.6325 131.301 51.7072L140.71 48.32ZM140.79 67.84L150.277 71.0023C150.283 70.984 150.289 70.9657 150.295 70.9474L140.79 67.84ZM136.79 74.96L129.24 68.4031C129.206 68.4414 129.174 68.4799 129.141 68.5186L136.79 74.96ZM130.47 79.76L134.623 88.8569C134.652 88.8437 134.681 88.8304 134.709 88.8169L130.47 79.76ZM113.03 79.44L108.343 88.2735C108.414 88.3113 108.486 88.3482 108.558 88.3843L113.03 79.44ZM106.71 73.2L98.0074 78.126C98.0209 78.1498 98.0345 78.1735 98.0481 78.1972L106.71 73.2ZM104.07 62.48L112.134 56.5664C109.537 53.0243 104.932 51.5919 100.783 53.0355C96.635 54.4791 93.9143 58.4607 94.0769 62.8501L104.07 62.48ZM107.59 67.28H117.59C117.59 65.1531 116.912 63.0815 115.654 61.3664L107.59 67.28ZM107.59 96V106C113.113 106 117.59 101.523 117.59 96H107.59ZM124.07 69.12L118.649 60.717C118.607 60.7442 118.565 60.7717 118.523 60.7995L124.07 69.12ZM127.91 64.64L136.952 68.9101L136.952 68.9101L127.91 64.64ZM124.15 47.12L118.603 55.4405C118.668 55.4838 118.733 55.5264 118.799 55.5682L124.15 47.12ZM112.95 46.88L108.258 38.0488L108.258 38.0488L112.95 46.88ZM108.79 50.8L100.31 45.5C100.295 45.5247 100.279 45.5495 100.264 45.5744L108.79 50.8ZM108.87 65.76L100.467 71.1813C100.535 71.287 100.606 71.3915 100.678 71.4946L108.87 65.76ZM113.11 69.44L108.638 78.3843L108.638 78.3843L113.11 69.44ZM104.79 96V36.16H84.79V96H104.79ZM94.79 46.16H104.95V26.16H94.79V46.16ZM94.95 36.16V55.12H114.95V36.16H94.95ZM105.537 45.1373L104.177 45.0573L103.003 65.0227L104.363 65.1027L105.537 45.1373ZM113.578 55.5272C113.74 52.2182 114.399 50.0779 115.125 48.7222L97.4952 39.2778C95.0215 43.8954 93.8671 49.1151 93.6019 54.5528L113.578 55.5272ZM115.159 48.6575C115.947 47.16 116.784 46.4154 117.603 45.9658L107.977 28.4342C103.356 30.9713 99.8727 34.76 97.4608 39.3425L115.159 48.6575ZM117.733 45.8929C118.812 45.2796 120.148 44.88 121.99 44.88V24.88C117.006 24.88 112.208 26.0271 107.847 28.5071L117.733 45.8929ZM121.99 44.88C123.78 44.88 125.084 45.2035 126.077 45.6569L134.383 27.4631C130.469 25.6765 126.28 24.88 121.99 24.88V44.88ZM126.151 45.6901C127.358 46.2295 128.298 46.9362 129.08 47.8369L144.18 34.7231C141.442 31.5704 138.115 29.1305 134.309 27.4299L126.151 45.6901ZM129.267 48.0463C130.061 48.9102 130.731 50.0049 131.223 51.4823L150.197 45.1577C148.876 41.195 146.826 37.5965 143.993 34.5137L129.267 48.0463ZM131.301 51.7072C131.823 53.1568 132.15 54.9272 132.15 57.12H152.15C152.15 52.9128 151.517 48.8166 150.119 44.9328L131.301 51.7072ZM132.15 57.12V58.96H152.15V57.12H132.15ZM132.15 58.96C132.15 61.1339 131.839 63.0382 131.285 64.7326L150.295 70.9474C151.554 67.0952 152.15 63.0794 152.15 58.96H132.15ZM131.303 64.6777C130.784 66.2359 130.08 67.4359 129.24 68.4031L144.34 81.5169C147.02 78.4308 148.983 74.8841 150.277 71.0023L131.303 64.6777ZM129.141 68.5186C128.41 69.3871 127.485 70.1161 126.231 70.7031L134.709 88.8169C138.469 87.0572 141.757 84.5862 144.439 81.4014L129.141 68.5186ZM126.317 70.6631C125.388 71.0874 124.021 71.44 121.99 71.44V91.44C126.359 91.44 130.646 90.6726 134.623 88.8569L126.317 70.6631ZM121.99 71.44C120.064 71.44 118.635 71.0619 117.502 70.4957L108.558 88.3843C112.759 90.4848 117.302 91.44 121.99 91.44V71.44ZM117.717 70.6065C116.899 70.1724 116.114 69.4886 115.372 68.2028L98.0481 78.1972C100.506 82.458 103.934 85.9343 108.343 88.2735L117.717 70.6065ZM115.413 68.274C114.818 67.2244 114.183 65.3377 114.063 62.1099L94.0769 62.8501C94.2773 68.2623 95.4016 73.5223 98.0074 78.126L115.413 68.274ZM96.006 68.3936L99.526 73.1936L115.654 61.3664L112.134 56.5664L96.006 68.3936ZM97.59 67.28V96H117.59V67.28H97.59ZM107.59 86H94.79V106H107.59V86ZM118.39 80.72C122.272 80.72 126.156 79.7476 129.617 77.4405L118.523 60.7995C118.562 60.7732 118.606 60.7486 118.651 60.7283C118.695 60.708 118.726 60.698 118.739 60.6946C118.766 60.6868 118.668 60.72 118.39 60.72V80.72ZM129.491 77.523C132.838 75.3636 135.314 72.3798 136.952 68.9101L118.868 60.3699C118.765 60.5864 118.692 60.6749 118.677 60.6921C118.666 60.7053 118.664 60.707 118.649 60.717L129.491 77.523ZM136.952 68.9101C138.594 65.435 139.27 61.7191 139.27 58H119.27C119.27 59.2942 119.04 60.005 118.868 60.3699L136.952 68.9101ZM139.27 58C139.27 54.2899 138.596 50.5531 136.905 47.071L118.915 55.809C119.037 56.0602 119.27 56.6968 119.27 58H139.27ZM136.905 47.071C135.267 43.6979 132.82 40.7738 129.501 38.6718L118.799 55.5682C118.792 55.5635 118.779 55.5545 118.765 55.5426C118.752 55.5306 118.745 55.5232 118.747 55.5252C118.747 55.5253 118.813 55.6002 118.915 55.809L136.905 47.071ZM129.697 38.7995C126.197 36.4664 122.271 35.52 118.39 35.52V55.52C118.716 55.52 118.845 55.5584 118.834 55.5552C118.829 55.5538 118.799 55.545 118.752 55.5237C118.705 55.5022 118.653 55.474 118.603 55.4405L129.697 38.7995ZM118.39 35.52C114.823 35.52 111.4 36.3799 108.258 38.0488L117.642 55.7112C117.913 55.5667 118.117 55.52 118.39 55.52V35.52ZM108.258 38.0488C104.935 39.8143 102.267 42.3683 100.31 45.5L117.27 56.1C117.446 55.8183 117.552 55.759 117.642 55.7112L108.258 38.0488ZM100.264 45.5744C98.0815 49.1352 97.27 53.0724 97.27 56.88H117.27C117.27 56.3791 117.323 56.0982 117.351 55.9854C117.377 55.8836 117.381 55.9196 117.316 56.0256L100.264 45.5744ZM97.27 56.88V59.84H117.27V56.88H97.27ZM97.27 59.84C97.27 63.7314 98.1946 67.659 100.467 71.1813L117.273 60.3387C117.321 60.4127 117.332 60.4604 117.324 60.4309C117.313 60.3911 117.27 60.211 117.27 59.84H97.27ZM100.678 71.4946C102.728 74.4238 105.407 76.7691 108.638 78.3843L117.582 60.4957C117.399 60.4043 117.252 60.2962 117.062 60.0254L100.678 71.4946ZM108.638 78.3843C111.658 79.8946 114.943 80.72 118.39 80.72V60.72C118.21 60.72 117.975 60.6921 117.582 60.4957L108.638 78.3843ZM157.84 78.96L154.033 88.2068C154.085 88.2282 154.137 88.2492 154.189 88.2697L157.84 78.96ZM151.84 73.44L142.788 77.6891C142.823 77.7639 142.859 77.8382 142.896 77.9121L151.84 73.44ZM150 24.32V14.32C144.477 14.32 140 18.7971 140 24.32H150ZM161.92 24.32H171.92C171.92 18.7971 167.443 14.32 161.92 14.32V24.32ZM163.52 68.16L156.279 75.0565C156.391 75.1743 156.506 75.2893 156.623 75.4014L163.52 68.16ZM174.72 69.76H184.72C184.72 64.2372 180.243 59.76 174.72 59.76V69.76ZM174.72 80.56V90.56C180.243 90.56 184.72 86.0828 184.72 80.56H174.72ZM143.36 45.52H133.36C133.36 51.0428 137.837 55.52 143.36 55.52V45.52ZM143.36 36.16V26.16C137.837 26.16 133.36 30.6371 133.36 36.16H143.36ZM174.72 36.16H184.72C184.72 30.6371 180.243 26.16 174.72 26.16V36.16ZM174.72 45.52V55.52C180.243 55.52 184.72 51.0428 184.72 45.52H174.72ZM168.56 70.56C164.804 70.56 162.609 70.0887 161.491 69.6503L154.189 88.2697C158.511 89.9646 163.463 90.56 168.56 90.56V70.56ZM161.648 69.7132C161.092 69.4845 160.952 69.3036 160.784 68.9679L142.896 77.9121C145.288 82.6964 149.148 86.1955 154.033 88.2068L161.648 69.7132ZM160.892 69.1909C160.533 68.4262 160 66.546 160 62.88H140C140 68.0673 140.693 73.2272 142.788 77.6891L160.892 69.1909ZM160 62.88V24.32H140V62.88H160ZM150 34.32H161.92V14.32H150V34.32ZM151.92 24.32V63.36H171.92V24.32H151.92ZM151.92 63.36C151.92 67.1025 152.902 71.5113 156.279 75.0565L170.761 61.2635C171.331 61.8615 171.651 62.4909 171.807 62.9577C171.949 63.3832 171.92 63.5661 171.92 63.36H151.92ZM156.623 75.4014C160.123 78.7346 164.468 79.76 168.24 79.76V59.76C168.087 59.76 168.304 59.7381 168.75 59.8893C169.236 60.054 169.848 60.377 170.417 60.9186L156.623 75.4014ZM168.24 79.76H174.72V59.76H168.24V79.76ZM164.72 69.76V80.56H184.72V69.76H164.72ZM174.72 70.56H168.56V90.56H174.72V70.56ZM153.36 45.52V36.16H133.36V45.52H153.36ZM143.36 46.16H174.72V26.16H143.36V46.16ZM164.72 36.16V45.52H184.72V36.16H164.72ZM174.72 35.52H143.36V55.52H174.72V35.52ZM207.251 80H197.251C197.251 85.5228 201.728 90 207.251 90V80ZM207.251 67.04H217.251C217.251 61.5172 212.774 57.04 207.251 57.04V67.04ZM205.091 67.04H195.091C195.091 72.5628 199.568 77.04 205.091 77.04V67.04ZM203.491 47.92L210.733 41.0234L210.733 41.0234L203.491 47.92ZM193.731 46.32L193.454 36.3239L193.454 36.3239L193.731 46.32ZM187.811 46.56L188.337 56.5462L188.337 56.5462L187.811 46.56ZM182.291 46.88H172.291C172.291 49.644 173.435 52.2847 175.452 54.1751C177.468 56.0656 180.177 57.0372 182.935 56.8593L182.291 46.88ZM182.291 36.08L181.425 26.1176C176.257 26.5669 172.291 30.8929 172.291 36.08H182.291ZM186.611 35.76L185.967 25.7807L185.967 25.7807L186.611 35.76ZM191.731 35.52L191.428 25.5246L191.428 25.5246L191.731 35.52ZM207.971 37.36L204.091 46.5764C204.11 46.5843 204.129 46.5923 204.148 46.6002L207.971 37.36ZM215.011 43.2L206.483 48.4215C206.499 48.4478 206.515 48.4739 206.531 48.5L215.011 43.2ZM217.411 80V90C222.934 90 227.411 85.5228 227.411 80H217.411ZM184.931 79.44L180.624 88.4648C180.65 88.4773 180.676 88.4896 180.702 88.5018L184.931 79.44ZM179.411 74.64L170.931 79.94C170.951 79.9723 170.972 80.0046 170.992 80.0367L179.411 74.64ZM179.891 59.2L187.64 65.5213C187.667 65.4885 187.693 65.4555 187.719 65.4224L179.891 59.2ZM186.851 54.64L189.911 64.1603C189.962 64.1439 190.013 64.127 190.064 64.1098L186.851 54.64ZM206.531 53.12H216.531C216.531 47.5972 212.054 43.12 206.531 43.12V53.12ZM206.531 60.24V70.24C212.054 70.24 216.531 65.7628 216.531 60.24H206.531ZM191.891 61.92L198.618 69.3194C198.623 69.3146 198.629 69.3097 198.634 69.3049L191.891 61.92ZM191.891 70.64L184.987 77.8736C185.098 77.9804 185.213 78.0846 185.329 78.1861L191.891 70.64ZM200.931 71.52L204.87 80.7114C204.937 80.6829 205.003 80.6536 205.069 80.6237L200.931 71.52ZM203.811 68.88L212.353 74.0795L212.353 74.0795L203.811 68.88ZM205.091 63.76L212.341 56.8725C209.584 53.9706 205.363 52.9921 201.611 54.3853C197.858 55.7785 195.298 59.2749 195.103 63.2728L205.091 63.76ZM208.131 66.96L218.093 67.8338C218.344 64.9776 217.356 62.1512 215.381 60.0725L208.131 66.96ZM205.891 74.64L197.278 69.5601C197.245 69.6154 197.213 69.6709 197.181 69.7268L205.891 74.64ZM200.931 79.44L196.283 70.586C196.252 70.6023 196.221 70.6187 196.19 70.6353L200.931 79.44ZM217.251 80V67.04H197.251V80H217.251ZM207.251 57.04H205.091V77.04H207.251V57.04ZM215.091 67.04V52.96H195.091V67.04H215.091ZM215.091 52.96C215.091 49.2971 214.227 44.693 210.733 41.0234L196.25 54.8165C195.598 54.1326 195.288 53.4504 195.16 53.0458C195.045 52.6838 195.091 52.6026 195.091 52.96H215.091ZM210.733 41.0234C206.991 37.0946 202.052 36.24 198.371 36.24V56.24C198.791 56.24 198.701 56.2952 198.294 56.1616C197.833 56.0104 197.026 55.6318 196.25 54.8166L210.733 41.0234ZM198.371 36.24C197.066 36.24 195.416 36.2693 193.454 36.3239L194.009 56.3161C195.887 56.264 197.33 56.24 198.371 56.24V36.24ZM193.454 36.3239C191.446 36.3796 189.39 36.463 187.286 36.5738L188.337 56.5462C190.286 56.4436 192.176 56.3671 194.009 56.3161L193.454 36.3239ZM187.286 36.5738C185.228 36.6821 183.348 36.791 181.647 36.9007L182.935 56.8593C184.541 56.7556 186.341 56.6512 188.337 56.5462L187.286 36.5738ZM192.291 46.88V36.08H172.291V46.88H192.291ZM183.158 46.0424C184.29 45.9439 185.652 45.8426 187.255 45.7392L185.967 25.7807C184.263 25.8907 182.746 26.0027 181.425 26.1176L183.158 46.0424ZM187.255 45.7393C188.788 45.6403 190.381 45.5655 192.034 45.5154L191.428 25.5246C189.562 25.5812 187.741 25.6663 185.967 25.7807L187.255 45.7393ZM192.034 45.5154C193.707 45.4647 195.258 45.44 196.691 45.44V25.44C195.031 25.44 193.276 25.4686 191.428 25.5246L192.034 45.5154ZM196.691 45.44C200.287 45.44 202.634 45.9631 204.091 46.5764L211.852 28.1436C207.228 26.1969 202.055 25.44 196.691 25.44V45.44ZM204.148 46.6002C205.478 47.1505 206.09 47.7797 206.483 48.4215L223.54 37.9785C220.733 33.3937 216.651 30.1295 211.795 28.1198L204.148 46.6002ZM206.531 48.5C206.852 49.0137 207.411 50.317 207.411 53.12H227.411C227.411 47.8163 226.37 42.5063 223.491 37.9L206.531 48.5ZM207.411 53.12V80H227.411V53.12H207.411ZM217.411 70H207.251V90H217.411V70ZM193.251 71.12C191.294 71.12 190.01 70.7748 189.16 70.3782L180.702 88.5018C184.652 90.3452 188.915 91.12 193.251 91.12V71.12ZM189.239 70.4152C188.481 70.0538 188.104 69.6705 187.83 69.2433L170.992 80.0367C173.385 83.7695 176.688 86.5862 180.624 88.4648L189.239 70.4152ZM187.891 69.34C187.707 69.0446 187.411 68.4156 187.411 67.04H167.411C167.411 71.5311 168.449 75.9688 170.931 79.94L187.891 69.34ZM187.411 67.04C187.411 66.2961 187.508 65.8795 187.566 65.696C187.594 65.6048 187.618 65.5588 187.626 65.5438C187.633 65.5296 187.637 65.525 187.64 65.5213L172.143 52.8787C168.729 57.0629 167.411 62.0683 167.411 67.04H187.411ZM187.719 65.4224C187.935 65.1507 188.458 64.6273 189.911 64.1603L183.791 45.1197C179.271 46.5727 175.154 49.0893 172.063 52.9776L187.719 65.4224ZM190.064 64.1098C191.806 63.5188 194.124 63.12 197.171 63.12V43.12C192.431 43.12 187.87 43.7346 183.638 45.1702L190.064 64.1098ZM197.171 63.12H206.531V43.12H197.171V63.12ZM196.531 53.12V60.24H216.531V53.12H196.531ZM206.531 50.24H197.091V70.24H206.531V50.24ZM197.091 50.24C193.239 50.24 188.78 51.2197 185.149 54.5351L198.634 69.3049C198.093 69.7992 197.547 70.0589 197.186 70.1757C196.861 70.2805 196.785 70.24 197.091 70.24V50.24ZM185.165 54.5206C181.534 57.821 180.131 62.1817 180.131 66.32H200.131C200.131 66.432 200.113 66.8923 199.856 67.5339C199.585 68.2125 199.148 68.8379 198.618 69.3194L185.165 54.5206ZM180.131 66.32C180.131 70.5546 181.657 74.6954 184.987 77.8736L198.796 63.4064C199.185 63.7778 199.57 64.3036 199.832 64.947C200.087 65.5728 200.131 66.0761 200.131 66.32H180.131ZM185.329 78.1861C188.963 81.3454 193.351 82.24 197.091 82.24V62.24C196.744 62.24 196.773 62.1963 197.052 62.2822C197.365 62.3784 197.897 62.6107 198.453 63.0939L185.329 78.1861ZM197.091 82.24C199.643 82.24 202.301 81.8128 204.87 80.7114L196.992 62.3285C197.15 62.261 197.257 62.2371 197.288 62.2313C197.316 62.2261 197.257 62.24 197.091 62.24V82.24ZM205.069 80.6237C208.274 79.1668 210.687 76.8163 212.353 74.0795L195.269 63.6805C195.336 63.5711 195.493 63.3464 195.774 63.0885C196.062 62.8243 196.411 62.5901 196.793 62.4163L205.069 80.6237ZM212.353 74.0795C214.306 70.8716 214.93 67.3004 215.079 64.2472L195.103 63.2728C195.089 63.5608 195.067 63.7852 195.044 63.9528C195.021 64.1208 194.999 64.2179 194.99 64.2546C194.968 64.3415 195.016 64.0964 195.269 63.6805L212.353 74.0795ZM197.841 70.6475L200.881 73.8475L215.381 60.0725L212.341 56.8725L197.841 70.6475ZM198.17 66.0862C198 68.0213 197.575 69.0566 197.278 69.5601L214.505 79.7198C216.661 76.0634 217.729 71.9787 218.093 67.8338L198.17 66.0862ZM197.181 69.7268C196.963 70.1137 196.727 70.3527 196.283 70.586L205.58 88.294C209.402 86.2873 212.473 83.3263 214.601 79.5532L197.181 69.7268ZM196.19 70.6353C195.926 70.7776 195.098 71.12 193.251 71.12V91.12C197.484 91.12 201.776 90.3424 205.672 88.2447L196.19 70.6353ZM243.391 79.2L238.448 87.8929C238.492 87.9175 238.535 87.9418 238.579 87.9658L243.391 79.2ZM236.991 72.56L245.801 67.8287L245.801 67.8287L236.991 72.56ZM234.511 62V52C231.815 52 229.232 53.0891 227.35 55.0201C225.468 56.9512 224.445 59.5606 224.515 62.2563L234.511 62ZM236.031 62H246.031C246.031 56.4772 241.554 52 236.031 52V62ZM236.031 80V90C241.554 90 246.031 85.5228 246.031 80H236.031ZM225.871 80H215.871C215.871 85.5228 220.348 90 225.871 90V80ZM225.871 21.6V11.6C220.348 11.6 215.871 16.0772 215.871 21.6H225.871ZM238.671 21.6H248.671C248.671 16.0772 244.194 11.6 238.671 11.6V21.6ZM238.671 51.28L246.512 57.487C247.91 55.7204 248.671 53.5332 248.671 51.28H238.671ZM235.631 55.12L225.638 54.7588C225.482 59.0787 228.119 63.0098 232.175 64.5038C236.232 65.9977 240.789 64.7162 243.472 61.327L235.631 55.12ZM238.111 44L229.198 39.4654C229.188 39.4862 229.177 39.507 229.167 39.5279L238.111 44ZM244.431 37.2L249.317 45.9251C249.361 45.9005 249.405 45.8756 249.448 45.8503L244.431 37.2ZM261.631 36.56L257.402 45.6218C257.482 45.6592 257.563 45.6955 257.644 45.7307L261.631 36.56ZM267.871 41.2L260.222 47.6414C260.25 47.6749 260.279 47.7083 260.308 47.7415L267.871 41.2ZM271.791 48.24L262.304 51.4023C262.323 51.4577 262.342 51.5131 262.361 51.5682L271.791 48.24ZM271.791 67.76L262.361 64.4318C262.342 64.4869 262.323 64.5423 262.304 64.5977L271.791 67.76ZM267.711 74.96L260.174 68.3886C260.169 68.3935 260.165 68.3983 260.161 68.4031L267.711 74.96ZM261.311 79.76L265.391 88.8901C265.444 88.8662 265.498 88.8418 265.551 88.8169L261.311 79.76ZM255.151 69.12L249.73 60.717C249.688 60.7442 249.646 60.7717 249.604 60.7995L255.151 69.12ZM258.991 64.64L268.034 68.9101C268.049 68.8785 268.063 68.8468 268.078 68.815L258.991 64.64ZM255.151 47.12L249.604 55.4405C249.71 55.511 249.817 55.5796 249.926 55.646L255.151 47.12ZM244.031 46.88L239.34 38.0488L239.34 38.0488L244.031 46.88ZM239.871 50.8L231.391 45.5C231.376 45.5247 231.36 45.5495 231.345 45.5744L239.871 50.8ZM239.951 65.76L231.548 71.1813C231.617 71.287 231.687 71.3915 231.759 71.4946L239.951 65.76ZM244.191 69.44L239.719 78.3843L239.719 78.3843L244.191 69.44ZM252.831 71.44C250.683 71.44 249.239 71.0024 248.204 70.4342L238.579 87.9658C242.984 90.3843 247.833 91.44 252.831 91.44V71.44ZM248.334 70.5071C247.326 69.9335 246.499 69.1285 245.801 67.8287L228.181 77.2913C230.577 81.7515 234.017 85.3731 238.448 87.8929L248.334 70.5071ZM245.801 67.8287C245.169 66.6512 244.585 64.7546 244.508 61.7437L224.515 62.2563C224.651 67.5654 225.72 72.7088 228.181 77.2913L245.801 67.8287ZM234.511 72H236.031V52H234.511V72ZM226.031 62V80H246.031V62H226.031ZM236.031 70H225.871V90H236.031V70ZM235.871 80V21.6H215.871V80H235.871ZM225.871 31.6H238.671V11.6H225.871V31.6ZM228.671 21.6V51.28H248.671V21.6H228.671ZM230.831 45.073L227.791 48.913L243.472 61.327L246.512 57.487L230.831 45.073ZM245.625 55.4812C245.749 52.0398 246.375 49.8338 247.056 48.4721L229.167 39.5279C226.861 44.1396 225.833 49.3469 225.638 54.7588L245.625 55.4812ZM247.024 48.5346C247.781 47.0468 248.575 46.3408 249.317 45.9251L239.545 28.4749C234.954 31.0459 231.535 34.8731 229.198 39.4654L247.024 48.5346ZM249.448 45.8503C250.431 45.2801 251.706 44.88 253.551 44.88V24.88C248.57 24.88 243.764 26.0265 239.414 28.5497L249.448 45.8503ZM253.551 44.88C255.264 44.88 256.486 45.1943 257.402 45.6218L265.86 27.4982C261.976 25.6856 257.812 24.88 253.551 24.88V44.88ZM257.644 45.7307C258.697 46.1884 259.519 46.8066 260.222 47.6414L275.52 34.7586C272.81 31.5401 269.472 29.0649 265.619 27.3893L257.644 45.7307ZM260.308 47.7415C261.077 48.6313 261.77 49.8004 262.304 51.4023L281.278 45.0777C279.999 41.2396 278.079 37.7153 275.435 34.6585L260.308 47.7415ZM262.361 51.5682C262.905 53.1088 263.231 54.9304 263.231 57.12H283.231C283.231 52.9096 282.597 48.8112 281.221 44.9118L262.361 51.5682ZM263.231 57.12V58.88H283.231V57.12H263.231ZM263.231 58.88C263.231 61.0696 262.905 62.8912 262.361 64.4318L281.221 71.0882C282.597 67.1888 283.231 63.0904 283.231 58.88H263.231ZM262.304 64.5977C261.799 66.1136 261.084 67.3439 260.174 68.3886L275.249 81.5314C277.965 78.4161 279.97 74.8464 281.278 70.9223L262.304 64.5977ZM260.161 68.4031C259.346 69.341 258.353 70.1036 257.072 70.7031L265.551 88.8169C269.283 87.0697 272.556 84.6323 275.262 81.5169L260.161 68.4031ZM257.232 70.6299C256.183 71.0984 254.777 71.44 252.831 71.44V91.44C257.179 91.44 261.426 90.6616 265.391 88.8901L257.232 70.6299ZM249.471 80.72C253.353 80.72 257.238 79.7476 260.698 77.4405L249.604 60.7995C249.644 60.7732 249.688 60.7486 249.732 60.7283C249.776 60.708 249.808 60.698 249.82 60.6946C249.848 60.6868 249.749 60.72 249.471 60.72V80.72ZM260.573 77.523C263.92 75.3636 266.395 72.3798 268.034 68.9101L249.949 60.3699C249.847 60.5864 249.773 60.6749 249.759 60.6921C249.747 60.7053 249.745 60.707 249.73 60.717L260.573 77.523ZM268.078 68.815C269.66 65.3719 270.351 61.7072 270.351 58H250.351C250.351 59.1995 250.136 59.9614 249.904 60.465L268.078 68.815ZM270.351 58C270.351 54.2899 269.678 50.5531 267.986 47.071L249.996 55.809C250.118 56.0602 250.351 56.6968 250.351 58H270.351ZM267.986 47.071C266.307 43.6131 263.773 40.6755 260.377 38.594L249.926 55.646C249.928 55.6474 249.92 55.6423 249.906 55.6308C249.892 55.6192 249.882 55.6088 249.877 55.6036C249.873 55.5987 249.881 55.6072 249.9 55.6359C249.919 55.6651 249.953 55.7202 249.996 55.809L267.986 47.071ZM260.698 38.7995C257.238 36.4924 253.353 35.52 249.471 35.52V55.52C249.749 55.52 249.848 55.5532 249.82 55.5454C249.808 55.542 249.776 55.532 249.732 55.5117C249.688 55.4914 249.644 55.4668 249.604 55.4405L260.698 38.7995ZM249.471 35.52C245.904 35.52 242.481 36.3799 239.34 38.0488L248.723 55.7112C248.995 55.5667 249.198 55.52 249.471 55.52V35.52ZM239.34 38.0488C236.016 39.8143 233.349 42.3683 231.391 45.5L248.351 56.1C248.527 55.8183 248.633 55.759 248.723 55.7112L239.34 38.0488ZM231.345 45.5744C229.163 49.1352 228.351 53.0724 228.351 56.88H248.351C248.351 56.3791 248.404 56.0982 248.433 55.9854C248.458 55.8836 248.462 55.9196 248.397 56.0256L231.345 45.5744ZM228.351 56.88V59.84H248.351V56.88H228.351ZM228.351 59.84C228.351 63.7314 229.276 67.659 231.548 71.1813L248.354 60.3387C248.402 60.4127 248.413 60.4604 248.405 60.4309C248.394 60.3911 248.351 60.211 248.351 59.84H228.351ZM231.759 71.4946C233.809 74.4238 236.489 76.7691 239.719 78.3843L248.663 60.4957C248.48 60.4043 248.333 60.2962 248.144 60.0254L231.759 71.4946ZM239.719 78.3843C242.74 79.8946 246.024 80.72 249.471 80.72V60.72C249.292 60.72 249.056 60.6921 248.663 60.4957L239.719 78.3843ZM280.281 80H270.281C270.281 85.5228 274.758 90 280.281 90V80ZM280.281 21.6V11.6C274.758 11.6 270.281 16.0772 270.281 21.6H280.281ZM293.161 21.6H303.161C303.161 16.0772 298.684 11.6 293.161 11.6V21.6ZM293.161 80V90C298.684 90 303.161 85.5228 303.161 80H293.161ZM275.081 31.04H265.081C265.081 36.5628 269.558 41.04 275.081 41.04V31.04ZM275.081 21.6V11.6C269.558 11.6 265.081 16.0772 265.081 21.6H275.081ZM293.161 21.6H303.161C303.161 16.0772 298.684 11.6 293.161 11.6V21.6ZM293.161 31.04V41.04C298.684 41.04 303.161 36.5628 303.161 31.04H293.161ZM290.281 80V21.6H270.281V80H290.281ZM280.281 31.6H293.161V11.6H280.281V31.6ZM283.161 21.6V80H303.161V21.6H283.161ZM293.161 70H280.281V90H293.161V70ZM285.081 31.04V21.6H265.081V31.04H285.081ZM275.081 31.6H293.161V11.6H275.081V31.6ZM283.161 21.6V31.04H303.161V21.6H283.161ZM293.161 21.04H275.081V41.04H293.161V21.04ZM312.716 79.6L308.591 88.7095C308.612 88.7191 308.633 88.7287 308.654 88.7381L312.716 79.6ZM305.596 74.48L297.99 80.9726C298.047 81.039 298.104 81.1047 298.163 81.1696L305.596 74.48ZM301.276 67.2L291.846 70.5282C291.872 70.6032 291.9 70.6778 291.928 70.7522L301.276 67.2ZM301.276 48.88L291.905 45.3889C291.892 45.4235 291.879 45.4581 291.867 45.4928L301.276 48.88ZM305.596 41.6L313.121 48.185L313.121 48.185L305.596 41.6ZM312.556 36.56L316.601 45.7053C316.627 45.6935 316.654 45.6816 316.681 45.6695L312.556 36.56ZM333.996 37.84L328.449 46.1605C328.502 46.1959 328.555 46.2308 328.609 46.2652L333.996 37.84ZM341.436 46.08L332.491 50.5521C332.501 50.571 332.51 50.5898 332.52 50.6087L341.436 46.08ZM343.996 61.44V71.44C349.518 71.44 353.996 66.9628 353.996 61.44H343.996ZM305.196 61.44H295.196C295.196 66.9628 299.673 71.44 305.196 71.44V61.44ZM305.196 54.16V44.16C299.673 44.16 295.196 48.6372 295.196 54.16H305.196ZM336.236 54.16L342.519 61.9394C345.816 59.2763 347.076 54.824 345.664 50.8279C344.252 46.8318 340.474 44.16 336.236 44.16V54.16ZM332.076 57.52H322.076C322.076 61.3725 324.289 64.8824 327.765 66.5431C331.241 68.2039 335.362 67.7201 338.359 65.2994L332.076 57.52ZM327.596 46.56L321.841 54.7381C321.955 54.8184 322.071 54.8963 322.188 54.9718L327.596 46.56ZM316.476 46.56L310.995 38.1954L310.995 38.1954L316.476 46.56ZM312.956 51.04L322.186 54.8862C322.199 54.8565 322.211 54.8268 322.223 54.797L312.956 51.04ZM312.876 65.04L303.523 68.5789C303.534 68.6075 303.545 68.636 303.556 68.6645L312.876 65.04ZM316.396 69.52L310.849 77.8405L310.849 77.8405L316.396 69.52ZM328.396 69.76L333.585 78.3079L333.585 78.3079L328.396 69.76ZM331.436 66.4V56.4C327.347 56.4 323.67 58.8895 322.151 62.6861L331.436 66.4ZM343.196 66.4L352.966 68.5317C353.611 65.5748 352.882 62.4848 350.984 60.1277C349.086 57.7706 346.222 56.4 343.196 56.4V66.4ZM339.436 74.24L347.191 80.5527L347.191 80.5527L339.436 74.24ZM332.396 79.6L328.271 70.4905L332.396 79.6ZM322.636 71.52C320.047 71.52 318.165 71.0786 316.777 70.4619L308.654 88.7381C313.027 90.6814 317.758 91.52 322.636 91.52V71.52ZM316.841 70.4905C315.169 69.7333 313.952 68.8163 313.029 67.7904L298.163 81.1696C301.079 84.4104 304.609 86.9067 308.591 88.7095L316.841 70.4905ZM313.201 67.9874C312.074 66.6666 311.226 65.2331 310.623 63.6478L291.928 70.7522C293.352 74.5003 295.384 77.92 297.99 80.9726L313.201 67.9874ZM310.706 63.8718C310.115 62.1986 309.836 60.5496 309.836 58.88H289.836C289.836 62.8637 290.516 66.7614 291.846 70.5282L310.706 63.8718ZM309.836 58.88V57.28H289.836V58.88H309.836ZM309.836 57.28C309.836 55.4604 310.129 53.8095 310.685 52.2672L291.867 45.4928C290.502 49.2838 289.836 53.2329 289.836 57.28H309.836ZM310.646 52.3711C311.247 50.7579 312.071 49.3853 313.121 48.185L298.07 35.015C295.387 38.0814 293.33 41.5621 291.905 45.3889L310.646 52.3711ZM313.121 48.185C313.962 47.224 315.066 46.3843 316.601 45.7053L308.511 27.4146C304.499 29.189 300.962 31.7094 298.07 35.015L313.121 48.185ZM316.681 45.6695C318.029 45.059 319.79 44.64 322.156 44.64V24.64C317.374 24.64 312.736 25.501 308.431 27.4505L316.681 45.6695ZM322.156 44.64C325.314 44.64 327.222 45.3429 328.449 46.1605L339.543 29.5195C334.369 26.0705 328.384 24.64 322.156 24.64V44.64ZM328.609 46.2652C330.36 47.3849 331.602 48.7735 332.491 50.5521L350.38 41.6079C347.856 36.5598 344.138 32.4551 339.382 29.4148L328.609 46.2652ZM332.52 50.6087C333.47 52.4796 333.996 54.5946 333.996 57.12H353.996C353.996 51.6454 352.814 46.4004 350.351 41.5513L332.52 50.6087ZM333.996 57.12V61.44H353.996V57.12H333.996ZM343.996 51.44H305.196V71.44H343.996V51.44ZM315.196 61.44V54.16H295.196V61.44H315.196ZM305.196 64.16H336.236V44.16H305.196V64.16ZM329.952 46.3806L325.792 49.7406L338.359 65.2994L342.519 61.9394L329.952 46.3806ZM342.076 57.52C342.076 53.9975 341.578 50.4298 340.24 47.0861L321.671 54.5139C321.827 54.9035 322.076 55.8158 322.076 57.52H342.076ZM340.24 47.0861C338.828 43.5545 336.473 40.3785 333.003 38.1482L322.188 54.9718C321.994 54.8473 321.831 54.6927 321.718 54.5508C321.613 54.4182 321.616 54.3767 321.671 54.5139L340.24 47.0861ZM333.351 38.3819C329.856 35.9231 325.899 35.04 322.156 35.04V55.04C322.482 55.04 322.562 55.0782 322.465 55.0511C322.415 55.0372 322.327 55.0083 322.213 54.9549C322.098 54.9012 321.971 54.8294 321.841 54.7381L333.351 38.3819ZM322.156 35.04C318.384 35.04 314.487 35.908 310.995 38.1954L321.956 54.9246C321.878 54.976 321.804 55.0146 321.742 55.0419C321.681 55.0688 321.644 55.0791 321.641 55.0801C321.634 55.0819 321.787 55.04 322.156 55.04V35.04ZM310.995 38.1954C307.499 40.4861 305.133 43.7192 303.688 47.2829L322.223 54.797C322.313 54.5756 322.357 54.5446 322.299 54.6182C322.271 54.6538 322.226 54.7052 322.162 54.7636C322.099 54.8222 322.029 54.877 321.956 54.9246L310.995 38.1954ZM303.725 47.1938C302.27 50.6853 301.756 54.4582 301.756 58.16H321.756C321.756 56.2085 322.041 55.2347 322.186 54.8862L303.725 47.1938ZM301.756 58.16C301.756 61.7042 302.26 65.2409 303.523 68.5789L322.229 61.5011C321.998 60.8925 321.756 59.8425 321.756 58.16H301.756ZM303.556 68.6645C304.991 72.3563 307.414 75.5506 310.849 77.8405L321.943 61.1995C321.971 61.2185 322.012 61.2492 322.058 61.292C322.105 61.3349 322.146 61.3797 322.179 61.4218C322.25 61.5127 322.242 61.5346 322.196 61.4155L303.556 68.6645ZM310.849 77.8405C314.554 80.3109 318.743 81.12 322.636 81.12V61.12C322.038 61.12 321.73 61.0566 321.639 61.0334C321.564 61.014 321.703 61.0398 321.943 61.1995L310.849 77.8405ZM322.636 81.12C326.204 81.12 330.078 80.4371 333.585 78.3079L323.206 61.2121C323.463 61.0563 323.608 61.0311 323.538 61.0476C323.457 61.0667 323.176 61.12 322.636 61.12V81.12ZM333.585 78.3079C336.521 76.5258 339.22 73.8646 340.72 70.1139L322.151 62.6861C322.347 62.1952 322.613 61.8045 322.86 61.5309C323.095 61.2715 323.252 61.184 323.206 61.2121L333.585 78.3079ZM331.436 76.4H343.196V56.4H331.436V76.4ZM333.425 64.2683C333.114 65.6937 332.541 66.8696 331.68 67.9273L347.191 80.5527C350.064 77.0237 351.997 72.973 352.966 68.5317L333.425 64.2683ZM331.68 67.9273C330.839 68.9603 329.758 69.8167 328.271 70.4905L336.521 88.7095C340.686 86.8233 344.299 84.1063 347.191 80.5527L331.68 67.9273ZM328.271 70.4905C326.958 71.0847 325.154 71.52 322.636 71.52V91.52C327.477 91.52 332.18 90.6753 336.521 88.7095L328.271 70.4905Z" fill="#261B31" mask="url(#path-1-outside-1_420_589)"/>
<ellipse cx="15" cy="43.5002" rx="12.1287" ry="9.22388" fill="#261B31"/>
<ellipse cx="16.5259" cy="56.5002" rx="12.1287" ry="9.22388" fill="#261B31"/>
<path d="M78 13.0025C76.9785 8.10799 76.9781 8.10808 76.9776 8.10818L76.9765 8.10842L76.9735 8.10903L76.9651 8.11081L76.9379 8.11654L76.8436 8.13664C76.7635 8.15383 76.6493 8.17855 76.5049 8.21046C76.2162 8.27424 75.8055 8.36696 75.3025 8.48578C74.2995 8.72271 72.9147 9.06695 71.391 9.49619C68.5476 10.2972 64.5175 11.5805 61.836 13.2688C59.1296 14.9727 57.0243 17.75 55.7696 19.6136C55.5319 19.9666 55.3104 20.309 55.1065 20.6337H46.9185L45.6689 12.2642L45.0524 8.13489L40.8793 8.00496L40.7237 13.0025C40.8793 8.00496 40.8778 8.00491 40.8763 8.00487L40.8731 8.00477L40.8661 8.00456L40.8497 8.00411L40.8074 8.0031C40.775 8.0024 40.7343 8.00167 40.6856 8.0011C40.5883 7.99995 40.4589 7.99942 40.3005 8.00093C39.9842 8.00394 39.5496 8.01513 39.022 8.04629C37.9732 8.10822 36.5215 8.25105 34.8796 8.57857C31.7178 9.20928 27.2397 10.6445 23.8028 14.1162C17.9214 20.0572 16.4398 27.6078 15.2021 33.9155C15.0075 34.9072 14.8189 35.8683 14.6202 36.7875C11.5683 50.9059 9.53147 63.3167 10.0933 78.1897C10.244 82.1791 10.7803 87.2129 12.6406 91.4027C13.5931 93.5481 14.9992 95.7184 17.1118 97.365C19.2996 99.0702 21.9766 100 25.0149 100H25.1888H25.3616H25.5335H25.7043H25.8741H26.043H26.2108H26.3776H26.5435H26.7084H26.8723H27.0352H27.1971H27.3581H27.5182H27.6772H27.8353H27.9925H28.1487H28.304H28.4583H28.6117H28.7642H28.9158H29.0664H29.2161H29.3649H29.5128H29.6598H29.8059H29.9511H30.0953H30.2387H30.3813H30.5229H30.6637H30.8035H30.9426H31.0807H31.218H31.3544H31.49H31.6247H31.7586H31.8917H32.0239H32.1552H32.2858H32.4155H32.5444H32.6725H32.7998H32.9262H33.0519H33.1767H33.3008H33.424H33.5465H33.6682H33.7891H33.9092H34.0286H34.1472H34.265H34.3821H34.4984H34.614H34.7288H34.8428H34.9562H35.0687H35.1806H35.2917H35.4021H35.5118H35.6208H35.729H35.8366H35.9434H36.0495H36.155H36.2597H36.3638H36.4672H36.5699H36.6719H36.7732H36.8739H36.9739H37.0733H37.172H37.27H37.3674H37.4642H37.5603H37.6558H37.7506H37.8449H37.9385H38.0314H38.1238H38.2156H38.3067H38.3972H38.4872H38.5765H38.6653H38.7534H38.841H38.928H39.0144H39.1003H39.1856H39.2703H39.3545H39.4381H39.5211H39.6036H39.6856H39.767H39.8479H39.9283H40.0081H40.0874H40.1662H40.2445H40.3222H40.3995H40.4762H40.5525H40.6283H40.7035H40.7783H40.8526H40.9264H40.9998H41.0726H41.145H41.217H41.2885H41.3595H41.4301H41.5002H41.5699H41.6391H41.7079H41.7763H41.8443H41.9118H41.9789H42.0456H42.1119H42.1778H42.2433H42.3084H42.373H42.4373H42.5012H42.5648H42.6279H42.6907H42.7531H42.8151H42.8768H42.9381H42.9991H43.0597H43.12H43.1799H43.2395H43.2987H43.3577H43.4162H43.4745H43.5325H43.5901H43.6474H43.7045H43.7612H43.8176H43.8737H43.9296H43.9851H44.0404H44.0954H44.1501H44.2046H44.2588H44.3127H44.3663H44.4198H44.4729H44.5258H44.5785H44.6309H44.6831H44.7351H44.7869H44.8384H44.8897H44.9408H44.9917H45.0424H45.0928H45.1431H45.1932H45.2431H45.2928H45.3424H45.3917H45.4409H45.4899H45.5387H45.5874H45.636H45.6843H45.7326H45.7806H45.8286H45.8764H45.924H45.9716H46.019H46.0663H46.1135H46.1605H46.2075H46.2543H46.3011H46.3477H46.3943H46.4408H46.4872H46.5335H46.5797H46.6259H46.6719H46.718H46.7639H46.8098H46.8557H46.9015H46.9472H46.993H47.0386H47.0843H47.1299H47.1755H47.2211H47.2666H47.3122H47.3577H47.4033H47.4488H47.4943H47.5399H47.5854H47.631H47.6766H47.7222H47.7679H47.8135H47.8593H47.905H47.9508H47.9966H48.0425H48.0885H48.1345H48.1806H48.2267H48.2729H48.3192H48.3656H48.4121H48.4586H48.5052H48.552H48.5988H48.6457H48.6928H48.74H48.7872H48.8346H48.8821H48.9298H48.9776H49.0255H49.0735H49.1217H49.1701H49.2186H49.2673H49.3161H49.3651H49.4142H49.4635H49.513H49.5627H49.6126H49.6627H49.7129H49.7633H49.814H49.8648H49.9159H49.9672H50.0187H50.0704H50.1223H50.1745H50.2269H50.2795H50.3324H50.3855H50.4389H50.4925H50.5464H50.6005H50.6549H50.7096H50.7646H50.8198H50.8753H50.9311H50.9872H51.0436H51.1002H51.1572H51.2145H51.2721H51.33H51.3882H51.4467H51.5056H51.5648H51.6243H51.6842H51.7444H51.805H51.8659H51.9271H51.9888H52.0507H52.1131H52.1758H52.2389H52.3023H52.3662H52.4304H52.495H52.5601H52.6255H52.6913H52.7575H52.8242H52.8912H52.9587H53.0266H53.0949H53.1636H53.2328H53.3024H53.3725H53.443H53.5139H53.5853H53.6572H53.7295H53.8023H53.8756H53.9493H54.0235H54.0982H54.1734H54.2491H54.3253H54.402H54.4791H54.5568H54.635H54.7137H54.7929H54.8727H54.9529H55.0337H55.1151H55.197H55.2794H55.3624H55.4459H55.5299H55.6146H55.6998H55.7855H55.8719H55.9588H56.0463H56.1343H56.223H56.3122H56.4021H56.4925H56.5836H56.6752H56.7675H56.8603H56.9538H57.048H57.1427H57.2381H57.3341H57.4308H57.5281H57.626H57.7246H57.8238H57.9238H58.0243H58.1256H58.2275H58.3301H58.4333H58.5373H58.6419H58.7473H58.8533H58.96H59.0674H59.1756H59.2844H59.394H59.5043H59.6153H59.727H59.8395H59.9527H60.0666H60.1813H60.2968H60.4129H60.5299H60.6476H60.7661H60.8853H61.0053H61.1261H61.2476H61.37H61.4931H61.6171H61.7418H61.8673H61.9936H62.1208H62.2487H62.3775H62.5071H62.6375H62.7687H62.9008H63.0337H63.1674H63.302H63.4375H63.5738H63.7109H63.8489H63.9878H64.1276H64.2682H64.4097H64.552H64.6953H64.8394H64.9845H65.1304H65.2773H65.425H65.5736H65.7232H65.8737H66.0251H66.1774H66.3307H66.4849H66.64H66.7961H66.9531H67.111H67.2699H67.4298H67.5906H67.7524H67.9152H68.079H68.2437H68.4094H68.576H68.7437H68.9124H69.0821H69.2527H69.4244H69.5971H69.7708H69.9455H70.1212H70.298H70.4757H70.6546H70.8344C70.8987 100 70.966 100 71.0363 100C72.904 100.003 76.8427 100.008 80.3801 98.4521C82.3389 97.5907 84.3353 96.1928 85.8112 93.9651C87.2904 91.7323 88 89.0384 88 86.0009L88 84.9925C88.0006 61.8644 88.0009 50.1673 84.4456 26.2644C84.1469 24.2561 83.7825 20.8719 83.4861 17.8968C83.3398 16.4291 83.2132 15.0931 83.1232 14.1238C83.0782 13.6394 83.0424 13.2473 83.0179 12.9768L82.9899 12.6661L82.9827 12.5862L82.9809 12.5664L82.9805 12.5616L82.9804 12.5605L82.9804 12.5603L82.4831 6.95921L76.9785 8.10799L78 13.0025Z" fill="url(#paint1_linear_420_589)" stroke="#261B31" stroke-width="10"/>
<path d="M15.6546 51C15.6546 51 8.72065 55.5688 13.9548 59.4459C23.1628 66.2665 37.8123 57.2677 37.8123 57.2677C37.8123 57.2677 42.8076 66.2665 59.3829 59.4459C65.808 56.8021 64.9634 51 64.9634 51" stroke="#261B31" stroke-width="3" stroke-linecap="round"/>
<ellipse cx="17.1658" cy="55.46" rx="2.92383" ry="3.85938" fill="url(#paint2_linear_420_589)"/>
<path d="M39.5 44C39.5 46.035 38.1322 48.1262 35.3898 49.7883C32.675 51.4336 28.8286 52.5 24.5 52.5C20.1714 52.5 16.325 51.4336 13.6102 49.7883C10.8678 48.1262 9.5 46.035 9.5 44C9.5 41.965 10.8678 39.8738 13.6102 38.2117C16.325 36.5664 20.1714 35.5 24.5 35.5C28.8286 35.5 32.675 36.5664 35.3898 38.2117C38.1322 39.8738 39.5 41.965 39.5 44Z" fill="#FFF7D0" stroke="#261B31" stroke-width="3"/>
<path d="M70.5 44C70.5 46.035 69.1322 48.1262 66.3898 49.7883C63.675 51.4336 59.8286 52.5 55.5 52.5C51.1714 52.5 47.325 51.4336 44.6102 49.7883C41.8678 48.1262 40.5 46.035 40.5 44C40.5 41.965 41.8678 39.8738 44.6102 38.2117C47.325 36.5664 51.1714 35.5 55.5 35.5C59.8286 35.5 63.675 36.5664 66.3898 38.2117C69.1322 39.8738 70.5 41.965 70.5 44Z" fill="#FFF7D0" stroke="#261B31" stroke-width="3"/>
<ellipse cx="22" cy="43.5" rx="10" ry="5.5" fill="#261B31"/>
<ellipse cx="58" cy="43.5" rx="10" ry="5.5" fill="#261B31"/>
<ellipse cx="118.372" cy="58" rx="3.86548" ry="4" fill="#261B30"/>
<ellipse cx="249.575" cy="58" rx="3.86548" ry="4" fill="#261B30"/>
<defs>
<linearGradient id="paint0_linear_420_589" x1="176.422" y1="111.302" x2="173.288" y2="27.9723" gradientUnits="userSpaceOnUse">
<stop stop-color="#FF00AA"/>
<stop offset="0.475" stop-color="#FF8E7D"/>
<stop offset="1" stop-color="#FFFC5B"/>
</linearGradient>
<linearGradient id="paint1_linear_420_589" x1="57.8808" y1="13" x2="53.6143" y2="179.011" gradientUnits="userSpaceOnUse">
<stop stop-color="#FFDF43"/>
<stop offset="1" stop-color="#FF00AA"/>
</linearGradient>
<linearGradient id="paint2_linear_420_589" x1="17.1658" y1="51.6006" x2="17.1658" y2="59.3193" gradientUnits="userSpaceOnUse">
<stop stop-color="#FFA75C"/>
<stop offset="1" stop-color="#FFA060"/>
</linearGradient>
</defs>
</svg>