<svg xmlns="http://www.w3.org/2000/svg" xmlns:xlink="http://www.w3.org/1999/xlink" xmlns:krita="http://krita.org/namespaces/svg/krita" xmlns:sodipodi="http://sodipodi.sourceforge.net/DTD/sodipodi-0.dtd" viewBox="99.55 16.75 379.98 280.18">
<defs>
  <linearGradient id="gradient0" gradientUnits="objectBoundingBox" x1="0" y1="0" x2="0.00159081245938419" y2="1.0745803941571" spreadMethod="pad">
   <stop stop-color="#dcfaff" offset="0.396226406097412" stop-opacity="1"/>
   <stop stop-color="#ffffff" offset="0.415094345808029" stop-opacity="1"/>
  </linearGradient>
  <linearGradient id="gradient1" gradientUnits="objectBoundingBox" x1="0" y1="0" x2="0.00159081245938419" y2="1.0745803941571" spreadMethod="pad">
   <stop stop-color="#dcfaff" offset="0.396226406097412" stop-opacity="1"/>
   <stop stop-color="#ffffff" offset="0.415094345808029" stop-opacity="1"/>
  </linearGradient>
 </defs>
<path id="shape01" transform="matrix(0.135265101133189 0.234648063175258 -0.242164475174533 0.17723681721734 381.329557537998 107.743844484712)" fill="#ffffcd" fill-rule="evenodd" stroke="#dffeff" stroke-width="17.7" stroke-linecap="round" stroke-linejoin="miter" stroke-miterlimit="2.00099992752075" d="M0.105327 256.648C-3.36784 245.546 79.8785 108.156 127.915 78.3604C154.592 72.112 173.302 58.3202 184.048 36.9841C179.164 59.2574 177.392 72.067 178.732 75.4118C195.438 52.2665 207.58 40.2684 215.158 39.4174C198.331 65.2471 199.783 75.5556 219.514 70.3428C234.127 68.8457 246.197 66.965 255.726 64.7013C268.293 61.7157 288.813 54.0474 317.285 41.6964C347.267 24.2789 369.351 10.3799 383.535 0C378.008 16.9742 374.881 26.7992 374.156 29.475C370.389 43.3623 349.283 61.0952 310.837 82.6738C322.203 94.0987 343.214 81.8725 365.361 66.858C353.683 96.7061 346.062 114.199 342.496 119.338C335.812 128.969 338.23 128.255 313.769 135.873C306.361 138.18 291.116 136.742 268.037 131.56C284.028 146.007 297.464 163.903 328.425 158.159C309.623 180.156 294.38 191.18 282.695 191.228C274.143 191.264 258.9 186.71 236.964 177.57C246.915 209.644 263.363 202.991 273.314 206.325C256.861 217.096 245.721 222.608 239.897 222.86C220.464 223.703 197.001 211.035 190.062 204.888C184.673 200.113 174.705 189.808 160.161 173.974C160.357 205.847 183.416 213.994 198.27 230.049C186.041 234.864 173.533 235.582 160.748 232.207C141.569 227.142 139.243 225.546 130.847 218.546C125.249 213.88 116.455 203.576 104.464 187.634C106.176 204.425 113.501 219.249 126.157 232.207C86.2874 225.532 66.3537 215.465 66.3554 202.011C66.3571 189.738 47.5963 208.428 10.0722 258.086C5.74304 264.53 2.42077 264.051 0.105327 256.648Z" sodipodi:nodetypes="ccccccsccsccssccsccsscczzccscz"/><path id="shape012" transform="matrix(-0.135265101133189 0.234648063175258 0.242164475174533 0.177236817217339 203.927842616631 107.814057370532)" fill="#ffffcd" fill-rule="evenodd" stroke="#dffeff" stroke-width="17.7" stroke-linecap="round" stroke-linejoin="miter" stroke-miterlimit="2.00099992752075" d="M0.105327 256.648C-3.36784 245.546 79.8785 108.156 127.915 78.3604C154.592 72.112 173.302 58.3202 184.048 36.9841C179.164 59.2574 177.392 72.067 178.732 75.4118C195.438 52.2665 207.58 40.2684 215.158 39.4174C198.331 65.2471 199.783 75.5556 219.514 70.3428C234.127 68.8457 246.197 66.965 255.726 64.7013C268.293 61.7157 288.813 54.0474 317.285 41.6964C347.267 24.2789 369.351 10.3799 383.535 0C378.008 16.9742 374.881 26.7992 374.156 29.475C370.389 43.3623 349.283 61.0952 310.837 82.6738C322.203 94.0987 343.214 81.8725 365.361 66.858C353.683 96.7061 346.062 114.199 342.496 119.338C335.812 128.969 338.23 128.255 313.769 135.873C306.361 138.18 291.116 136.742 268.037 131.56C284.028 146.007 297.464 163.903 328.425 158.159C309.623 180.156 294.38 191.18 282.695 191.228C274.143 191.264 258.9 186.71 236.964 177.57C246.915 209.644 263.363 202.991 273.314 206.325C256.861 217.096 245.721 222.608 239.897 222.86C220.464 223.703 197.001 211.035 190.062 204.888C184.673 200.113 174.705 189.808 160.161 173.974C160.357 205.847 183.416 213.994 198.27 230.049C186.041 234.864 173.533 235.582 160.748 232.207C141.569 227.142 139.243 225.546 130.847 218.546C125.249 213.88 116.455 203.576 104.464 187.634C106.176 204.425 113.501 219.249 126.157 232.207C86.2874 225.532 66.3537 215.465 66.3554 202.011C66.3571 189.738 47.5963 208.428 10.0722 258.086C5.74304 264.53 2.42077 264.051 0.105327 256.648Z" sodipodi:nodetypes="ccccccsccsccssccsccsscczzccscz"/><path id="shape02" transform="matrix(-0.248321630702132 0 0 0.325373914654668 274.269819756663 27.9583830930704)" fill="#ffffcd" fill-rule="evenodd" stroke="#dffeff" stroke-width="17.7" stroke-linecap="round" stroke-linejoin="miter" stroke-miterlimit="2.00099992752075" d="M0.183441 382.111C-5.86551 365.582 139.118 161.028 222.78 116.667C269.24 107.364 301.826 86.8301 320.542 55.0638C312.036 88.2255 308.949 107.297 311.283 112.277C340.379 77.8171 361.525 59.9536 374.723 58.6866C345.418 97.1432 347.947 112.491 382.31 104.73C407.761 102.501 428.782 99.7009 445.377 96.3306C467.264 91.8855 503.003 80.4685 552.59 62.0797C604.808 36.1476 643.269 15.4542 667.973 0C658.347 25.272 652.9 39.9 651.638 43.8839C645.077 64.56 608.319 90.9616 541.36 123.089C561.155 140.099 597.748 121.896 636.32 99.5416C615.982 143.981 602.708 170.026 596.498 177.677C584.858 192.015 589.069 190.952 546.466 202.295C533.564 205.729 507.013 203.589 466.819 195.873C494.67 217.383 518.069 244.027 571.992 235.475C539.246 268.226 512.698 284.638 492.348 284.71C477.454 284.763 450.906 277.984 412.701 264.375C430.033 312.128 458.679 302.223 476.01 307.187C447.355 323.224 427.953 331.43 417.809 331.805C383.964 333.06 343.101 314.2 331.016 305.048C321.63 297.938 304.27 282.596 278.94 259.022C279.281 306.475 319.442 318.605 345.312 342.509C324.013 349.677 302.229 350.747 279.962 345.721C246.559 338.181 242.509 335.805 227.886 325.383C218.137 318.435 202.82 303.094 181.937 279.359C184.918 304.359 197.676 326.429 219.717 345.721C150.28 335.783 115.563 320.796 115.566 300.765C115.569 282.491 82.8947 310.319 17.5419 384.252C10.0022 393.846 4.21607 393.132 0.183441 382.111Z" sodipodi:nodetypes="ccccccsccsccssccsccsscczzccscz"/><path id="shape03" transform="matrix(0.248321630702132 0 0 0.325373914654668 304.806012177632 25.604556770494)" fill="#ffffcd" fill-rule="evenodd" stroke="#dffeff" stroke-width="17.7" stroke-linecap="round" stroke-linejoin="miter" stroke-miterlimit="2.00099992752075" d="M0.183441 382.111C-5.86551 365.582 139.118 161.028 222.78 116.667C269.24 107.364 301.826 86.8301 320.542 55.0638C312.036 88.2255 308.949 107.297 311.283 112.277C340.379 77.8171 361.525 59.9536 374.723 58.6866C345.418 97.1432 347.947 112.491 382.31 104.73C407.761 102.501 428.782 99.7009 445.377 96.3306C467.264 91.8855 503.003 80.4685 552.59 62.0797C604.808 36.1476 643.269 15.4542 667.973 0C658.347 25.272 652.9 39.9 651.638 43.8839C645.077 64.56 608.319 90.9616 541.36 123.089C561.155 140.099 597.748 121.896 636.32 99.5416C615.982 143.981 602.708 170.026 596.498 177.677C584.858 192.015 589.069 190.952 546.466 202.295C533.564 205.729 507.013 203.589 466.819 195.873C494.67 217.383 518.069 244.027 571.992 235.475C539.246 268.226 512.698 284.638 492.348 284.71C477.454 284.763 450.906 277.984 412.701 264.375C430.033 312.128 458.679 302.223 476.01 307.187C447.355 323.224 427.953 331.43 417.809 331.805C383.964 333.06 343.101 314.2 331.016 305.048C321.63 297.938 304.27 282.596 278.94 259.022C279.281 306.475 319.442 318.605 345.312 342.509C324.013 349.677 302.229 350.747 279.962 345.721C246.559 338.181 242.509 335.805 227.886 325.383C218.137 318.435 202.82 303.094 181.937 279.359C184.918 304.359 197.676 326.429 219.717 345.721C150.28 335.783 115.563 320.796 115.566 300.765C115.569 282.491 82.8947 310.319 17.5419 384.252C10.0022 393.846 4.21607 393.132 0.183441 382.111Z" sodipodi:nodetypes="ccccccsccsccssccsccsscczzccscz"/><path id="shape06" transform="matrix(-0.385279028932578 0.378174367928535 -0.40215798082208 -0.520181249601445 337.06242429883 254.963368092004)" fill="#ffeb00" fill-rule="evenodd" stroke="#34120c" stroke-width="4.5" stroke-linecap="square" stroke-linejoin="bevel" d="M0 99.6468C20.7509 81.3899 34.9835 67.9028 42.6979 59.1856C65.6409 33.26 78.2345 9.01148 90.3491 2.29232C97.4315 -1.63586 103.025 -1.41311 104.971 10.1673C106.497 19.2432 76.8836 53.2848 16.1325 112.292Z" sodipodi:nodetypes="cssscc"/><path id="shape62" transform="matrix(-0.50610789402882 0.0791882769936229 -0.0842103544853498 -0.683317328426764 301.145189250591 289.837849257626)" fill="#f5c614" fill-rule="evenodd" stroke-opacity="0" stroke="#000000" stroke-width="0" stroke-linecap="square" stroke-linejoin="bevel" d="M6.36273 0.471987C8.64226 -1.61487 12.9485 3.84379 14.1962 4.70103C15.3695 5.50722 14.5746 6.47578 15.666 10.342C16.4073 12.9679 16.3602 19.6542 16.6085 26.225C16.7374 29.6347 16.3785 35.3757 16.2605 43.5321L12.059 51.5682L8.58671 40.606L3.45828 52.4975L0.353492 42.0946C0.46877 33.0117 -0.0652326 20.3114 0.00669356 16.5349C0.0580769 13.837 0.789438 12.7029 1.39785 6.4568C1.66653 3.69855 5.74789 1.03487 6.36273 0.471987Z" sodipodi:nodetypes="cssscccccsss"/><path id="shape72" transform="matrix(-0.469653699409094 0.226786314992445 -0.241168979841269 -0.634099003300066 301.151080297145 247.722643001213)" fill="#f5c614" fill-rule="evenodd" stroke-opacity="0" stroke="#000000" stroke-width="0" stroke-linecap="square" stroke-linejoin="bevel" d="M11.4366 0C11.7706 0.0249065 9.76384 2.93527 9.92386 10.3432L16.7696 4.56043L16.3659 13.8234C20.0913 9.4116 23.09 5.01555 23.4947 5.31051C24.2228 5.84111 19.946 14.3919 17.0876 21.4838C14.6807 27.4556 12.9556 30.7243 11.0561 32.2874C9.47054 33.5923 6.11338 34.4473 3.04497 32.9181C1.00877 29.9249 -0.438053 29.8004 0.121011 27.7079C1.24626 23.4962 5.3214 15.5535 6.02097 13.8118Z" sodipodi:nodetypes="ccccssscscc"/><path id="shape13" transform="matrix(0.510955067297208 0.00409763782312553 -0.0030349689125104 0.689861698762134 230.843230355424 50.9242026755753)" fill="#ffeb00" fill-rule="evenodd" stroke="#34120c" stroke-width="4.5" stroke-linecap="round" stroke-linejoin="miter" stroke-miterlimit="2.00099992752075" d="M27.9435 193.776C27.1453 171.44 32.488 148.945 33.7755 126.474C33.9838 122.838 23.3224 120.167 24.7841 107.816L28.5959 100.865L0 96.0862L26.3891 93.8359L11.8703 76.0937L35.3674 90.6832C36.3198 79.302 36.0864 58.2567 38.0613 44.6092C40.2263 29.6489 49.7807 19.0091 54.3849 15.0177C68.453 2.82184 85.7283 -2.88588 86.9471 1.43252C89.9168 11.9551 91.4806 22.7707 91.6385 33.8791L96.4563 34.2281C98.3227 23.6263 106.983 18.8212 122.438 19.8126C115.528 27.6855 112.298 31.8925 112.747 32.4336C113.529 33.3747 119.357 28.1735 124.291 25.6658C126.148 29.0431 128.005 32.4205 129.862 35.7979L140.298 36.0535C142.169 27.0472 147.046 19.2235 154.929 12.5824C166.755 2.62081 186.084 -1.35756 191.213 1.02623C193.306 7.782 194.664 21.3592 195.286 41.7579C202.574 101.14 206.24 143.501 206.283 168.841C206.291 173.321 212.621 207.143 206.945 218.85C207.889 276.267 205.23 269.349 203.666 269.95C187.132 276.312 183.507 267.538 162.045 226.484C136.57 231.685 110.586 236.718 74.6409 226.09C63.1457 265.356 68.592 266.656 59.8286 271.639C54.3184 274.772 31.7428 261.001 31.2542 214.572C29.1964 204.885 28.0928 197.953 27.9435 193.776Z" sodipodi:nodetypes="csccccccscscccsccczccscsccscs"/><g id="group011" transform="matrix(0.510964080765953 0 0 0.689873868221363 283.379790730609 88.4717452496499)" fill="none">
  <ellipse id="shape015" transform="matrix(0.934840131477521 0.00555275976067595 -0.00593969131442836 0.999982359877957 0.283323275698137 -7.105427357601e-15)" rx="40.2" ry="23.85" cx="40.2" cy="23.85" fill="url(#gradient0)" fill-rule="evenodd" stroke="#34120c" stroke-width="4.5" stroke-linecap="square" stroke-linejoin="bevel"/>
  <ellipse id="shape023" transform="matrix(0.888203570538468 0.00527574809821192 -0.00628044889267508 1.05735092487623 11.5507541279335 7.9139037017676)" rx="29.0744132587731" ry="14.223180971657" cx="29.0744132587731" cy="14.223180971657" fill="#34120c" fill-rule="evenodd" stroke="#34120c" stroke-width="4.5" stroke-linecap="square" stroke-linejoin="bevel"/>
 </g><path id="shape32" transform="matrix(0.510955067297208 0.00409763782312553 -0.0030349689125104 0.689861698762134 243.585907269218 108.585282910747)" fill="none" stroke="#34120c" stroke-width="4.5" stroke-linecap="round" stroke-linejoin="miter" stroke-miterlimit="2.00099992752075" d="M0 31.6426C13.6468 58.9362 49.2257 33.2838 69.6512 29.1987C78.2148 27.4859 92.6576 48.2572 118.935 41.0905C128.581 38.4599 143.861 30.8569 150.78 23.6535L181.297 22.5999L159.364 14.7136L182.842 0L157.224 5.81499" sodipodi:nodetypes="cccccccc"/><g id="group12" transform="matrix(0.510964080765953 0 0 0.689873868221363 243.906106795573 87.719143860833)" fill="none">
  <ellipse id="shape033" transform="matrix(0.934840131477521 0.00555275976067595 -0.00593969131442836 0.999982359877957 0.283323275697967 1.4210854715202e-14)" rx="40.2" ry="23.85" cx="40.2" cy="23.85" fill="url(#gradient1)" fill-rule="evenodd" stroke="#34120c" stroke-width="4.5" stroke-linecap="square" stroke-linejoin="bevel"/>
  <ellipse id="shape0113" transform="matrix(0.888203570538468 0.00527574809821192 -0.00628044889267508 1.05735092487623 14.3983229193033 7.52435268863761)" rx="29.0744132587731" ry="14.223180971657" cx="29.0744132587731" cy="14.223180971657" fill="#34120c" fill-rule="evenodd" stroke="#34120c" stroke-width="4.5" stroke-linecap="square" stroke-linejoin="bevel"/>
 </g><path id="shape42" transform="matrix(0.349753455697946 -0.141294625426223 0.146150634686246 0.503408887285241 256.244354516449 175.446123754778)" fill="#f5c614" fill-rule="evenodd" stroke-opacity="0" stroke="#000000" stroke-width="0" stroke-linecap="square" stroke-linejoin="bevel" d="M57.7664 16.2722L31.7308 0L0 19.1199C8.54291 24.8151 17.0858 30.5104 25.6287 36.2057L7.7293 60.614L32.9512 51.2575L32.5444 64.2753L61.2829 53.3261L72.4423 71.7332L67.5297 46.3758L42.3078 50.4439L47.5962 41.901L30.1036 43.935L40.6805 30.5104L21.5607 17.8994L33.358 10.9837Z" sodipodi:nodetypes="ccccccccccccccccc"/><path id="shape52" transform="matrix(0.510955067297208 0.00409763782312553 -0.0030349689125104 0.689861698762134 268.996064083814 156.406846364026)" fill="#f5c614" fill-rule="evenodd" stroke-opacity="0" stroke="#000000" stroke-width="0" stroke-linecap="square" stroke-linejoin="bevel" d="M0 5.21502L13.0376 0L22.8157 9.77817L41.0683 9.77817L15.6451 19.2304Z" sodipodi:nodetypes="cccccc"/><path id="shape82" transform="matrix(0.497361972969926 0.158118586590444 -0.117112594013017 0.671509096460611 306.858207484792 130.796589615741)" fill="#ffffff" fill-rule="evenodd" stroke="#34120c" stroke-width="4.5" stroke-linecap="square" stroke-linejoin="round" d="M12.8034 0C10.4755 7.75963 8.14761 15.5193 5.81971 23.2789L0 9.31154C4.81473 8.53044 7.98867 0.781097 12.8034 0Z" sodipodi:nodetypes="cccc"/><path id="shape21" transform="matrix(1.71031820760113 -0.196243198779365 0.169023119078386 1.98575388870076 269.725361500088 129.30487640575)" fill="#7e1c36" fill-rule="evenodd" stroke="#34120c" stroke-width="1.509" stroke-linecap="square" stroke-linejoin="bevel" d="M0 2.07562C5.72225 11.8453 3.14538 10.3293 4.00614 13.3173C4.8547 14.5789 5.53602 15.3141 6.05009 15.5228C8.15181 16.3763 10.2908 15.1681 11.1756 14.7483C13.3153 13.7331 16.3163 10.9733 20.1784 6.46895C18.4093 7.10318 10.6284 6.81339 6.37096 0Z" sodipodi:nodetypes="ccssccc"/>
</svg>