<svg xmlns="http://www.w3.org/2000/svg" xmlns:xlink="http://www.w3.org/1999/xlink" xmlns:krita="http://krita.org/namespaces/svg/krita" xmlns:sodipodi="http://sodipodi.sourceforge.net/DTD/sodipodi-0.dtd" viewBox="99.5 32.96 361.2 257.64">
<defs>
  <linearGradient id="gradient0" gradientUnits="objectBoundingBox" x1="0" y1="0" x2="0.00159081245938419" y2="1.0745803941571" spreadMethod="pad">
   <stop stop-color="#dcfaff" offset="0.396226406097412" stop-opacity="1"/>
   <stop stop-color="#ffffff" offset="0.415094345808029" stop-opacity="1"/>
  </linearGradient>
  <linearGradient id="gradient1" gradientUnits="objectBoundingBox" x1="0" y1="0" x2="0.00159081245938419" y2="1.0745803941571" spreadMethod="pad">
   <stop stop-color="#dcfaff" offset="0.396226406097412" stop-opacity="1"/>
   <stop stop-color="#ffffff" offset="0.415094345808029" stop-opacity="1"/>
  </linearGradient>
 </defs>
<path id="shape011" transform="matrix(0.143885623563947 0.228328252889776 0.242825082316052 -0.177176985050613 290.807812570294 182.982313828797)" fill="#ffffcd" fill-rule="evenodd" stroke="#dffeff" stroke-width="17.7" stroke-linecap="round" stroke-linejoin="miter" stroke-miterlimit="2.00099992752075" d="M0.105327 130.562C-3.36784 124.914 79.8785 55.0212 127.915 39.8635C154.592 36.6848 173.302 29.6687 184.048 18.8146C179.164 30.1454 177.392 36.662 178.732 38.3635C195.438 26.589 207.58 20.4854 215.158 20.0524C198.331 33.1925 199.783 38.4367 219.514 35.7848C234.127 35.0232 246.197 34.0665 255.726 32.9149C268.293 31.396 288.813 27.495 317.285 21.2118C347.267 12.3512 369.351 5.28047 383.535 0C378.008 8.63512 374.881 13.6333 374.156 14.9945C370.389 22.0593 349.283 31.0804 310.837 42.0578C322.203 47.8699 343.214 41.6502 365.361 34.012C353.683 49.1964 346.062 58.0954 342.496 60.7097C335.812 65.6092 338.23 65.2459 313.769 69.1214C306.361 70.295 291.116 69.5634 268.037 66.9273C284.028 74.2767 297.464 83.3808 328.425 80.4587C309.623 91.649 294.38 97.2572 282.695 97.2816C274.143 97.2999 258.9 94.9832 236.964 90.3335C246.915 106.65 263.363 103.266 273.314 104.962C256.861 110.441 245.721 113.245 239.897 113.373C220.464 113.802 197.001 107.358 190.062 104.231C184.673 101.802 174.705 96.5592 160.161 88.5041C160.357 104.719 183.416 108.863 198.27 117.031C186.041 119.48 173.533 119.845 160.748 118.128C141.569 115.552 139.243 114.74 130.847 111.179C125.249 108.805 116.455 103.563 104.464 95.4532C106.176 103.995 113.501 111.536 126.157 118.128C86.2874 114.733 66.3537 109.611 66.3554 102.767C66.3571 96.5236 47.5963 106.032 10.0722 131.294C5.74304 134.572 2.42077 134.328 0.105327 130.562Z" sodipodi:nodetypes="ccccccsccsccssccsccsscczzccscz"/><path id="shape0" transform="matrix(0.205301266842995 0.154999029124836 0.167564354184367 -0.267727210888349 290.072408327492 178.217404411449)" fill="#ffffcd" fill-rule="evenodd" stroke="#dffeff" stroke-width="17.7" stroke-linecap="round" stroke-linejoin="miter" stroke-miterlimit="2.00099992752075" d="M0.183441 143.725C-5.86551 137.508 139.118 60.5682 222.78 43.8825C269.24 40.3833 301.826 32.6598 320.542 20.7114C312.036 33.1847 308.949 40.3581 311.283 42.2313C340.379 29.2697 361.525 22.5506 374.723 22.0741C345.418 36.5389 347.947 42.3118 382.31 39.3926C407.761 38.5542 428.782 37.501 445.377 36.2333C467.264 34.5613 503.003 30.267 552.59 23.3503C604.808 13.5964 643.269 5.81286 667.973 0C658.347 9.50568 652.9 15.0078 651.638 16.5063C645.077 24.2833 608.319 34.2138 541.36 46.2981C561.155 52.6961 597.748 45.8493 636.32 37.4411C615.982 54.1563 602.708 63.9527 596.498 66.8305C584.858 72.2235 589.069 71.8237 546.466 76.0902C533.564 77.3818 507.013 76.5769 466.819 73.6746C494.67 81.7653 518.069 91.787 571.992 88.5703C539.246 100.889 512.698 107.062 492.348 107.089C477.454 107.109 450.906 104.559 412.701 99.4406C430.033 117.402 458.679 113.677 476.01 115.544C447.355 121.576 427.953 124.662 417.809 124.803C383.964 125.275 343.101 118.182 331.016 114.739C321.63 112.065 304.27 106.294 278.94 97.4272C279.281 115.276 319.442 119.838 345.312 128.83C324.013 131.526 302.229 131.928 279.962 130.038C246.559 127.202 242.509 126.308 227.886 122.388C218.137 119.774 202.82 114.004 181.937 105.077C184.918 114.48 197.676 122.781 219.717 130.038C150.28 126.3 115.563 120.663 115.566 113.128C115.569 106.255 82.8947 116.722 17.5419 144.531C10.0022 148.139 4.21607 147.871 0.183441 143.725Z" sodipodi:nodetypes="ccccccsccsccssccsccsscczzccscz"/><path id="shape0114" transform="matrix(-0.143885623563947 0.228328252889776 -0.242825082316052 -0.177176985050613 269.392588539466 175.762129471204)" fill="#ffffcd" fill-rule="evenodd" stroke="#dffeff" stroke-width="17.7" stroke-linecap="round" stroke-linejoin="miter" stroke-miterlimit="2.00099992752075" d="M0.105327 130.562C-3.36784 124.914 79.8785 55.0212 127.915 39.8635C154.592 36.6848 173.302 29.6687 184.048 18.8146C179.164 30.1454 177.392 36.662 178.732 38.3635C195.438 26.589 207.58 20.4854 215.158 20.0524C198.331 33.1925 199.783 38.4367 219.514 35.7848C234.127 35.0232 246.197 34.0665 255.726 32.9149C268.293 31.396 288.813 27.495 317.285 21.2118C347.267 12.3512 369.351 5.28047 383.535 0C378.008 8.63512 374.881 13.6333 374.156 14.9945C370.389 22.0593 349.283 31.0804 310.837 42.0578C322.203 47.8699 343.214 41.6502 365.361 34.012C353.683 49.1964 346.062 58.0954 342.496 60.7097C335.812 65.6092 338.23 65.2459 313.769 69.1214C306.361 70.295 291.116 69.5634 268.037 66.9273C284.028 74.2767 297.464 83.3808 328.425 80.4587C309.623 91.649 294.38 97.2572 282.695 97.2816C274.143 97.2999 258.9 94.9832 236.964 90.3335C246.915 106.65 263.363 103.266 273.314 104.962C256.861 110.441 245.721 113.245 239.897 113.373C220.464 113.802 197.001 107.358 190.062 104.231C184.673 101.802 174.705 96.5592 160.161 88.5041C160.357 104.719 183.416 108.863 198.27 117.031C186.041 119.48 173.533 119.845 160.748 118.128C141.569 115.552 139.243 114.74 130.847 111.179C125.249 108.805 116.455 103.563 104.464 95.4532C106.176 103.995 113.501 111.536 126.157 118.128C86.2874 114.733 66.3537 109.611 66.3554 102.767C66.3571 96.5236 47.5963 106.032 10.0722 131.294C5.74304 134.572 2.42077 134.328 0.105327 130.562Z" sodipodi:nodetypes="ccccccsccsccssccsccsscczzccscz"/><path id="shape07" transform="matrix(-0.205301266842995 0.154999029124836 -0.167564354184367 -0.267727210888349 270.127992861389 170.997219970581)" fill="#ffffcd" fill-rule="evenodd" stroke="#dffeff" stroke-width="17.7" stroke-linecap="round" stroke-linejoin="miter" stroke-miterlimit="2.00099992752075" d="M0.183441 143.725C-5.86551 137.508 139.118 60.5682 222.78 43.8825C269.24 40.3833 301.826 32.6598 320.542 20.7114C312.036 33.1847 308.949 40.3581 311.283 42.2313C340.379 29.2697 361.525 22.5506 374.723 22.0741C345.418 36.5389 347.947 42.3118 382.31 39.3926C407.761 38.5542 428.782 37.501 445.377 36.2333C467.264 34.5613 503.003 30.267 552.59 23.3503C604.808 13.5964 643.269 5.81286 667.973 0C658.347 9.50568 652.9 15.0078 651.638 16.5063C645.077 24.2833 608.319 34.2138 541.36 46.2981C561.155 52.6961 597.748 45.8493 636.32 37.4411C615.982 54.1563 602.708 63.9527 596.498 66.8305C584.858 72.2235 589.069 71.8237 546.466 76.0902C533.564 77.3818 507.013 76.5769 466.819 73.6746C494.67 81.7653 518.069 91.787 571.992 88.5703C539.246 100.889 512.698 107.062 492.348 107.089C477.454 107.109 450.906 104.559 412.701 99.4406C430.033 117.402 458.679 113.677 476.01 115.544C447.355 121.576 427.953 124.662 417.809 124.803C383.964 125.275 343.101 118.182 331.016 114.739C321.63 112.065 304.27 106.294 278.94 97.4272C279.281 115.276 319.442 119.838 345.312 128.83C324.013 131.526 302.229 131.928 279.962 130.038C246.559 127.202 242.509 126.308 227.886 122.388C218.137 119.774 202.82 114.004 181.937 105.077C184.918 114.48 197.676 122.781 219.717 130.038C150.28 126.3 115.563 120.663 115.566 113.128C115.569 106.255 82.8947 116.722 17.5419 144.531C10.0022 148.139 4.21607 147.871 0.183441 143.725Z" sodipodi:nodetypes="ccccccsccsccssccsccsscczzccscz"/><path id="shape034" transform="matrix(-0.38653075630181 0.3776012984769 -0.403464545969798 -0.519392988923989 325.012415507156 238.937999431911)" fill="#ffeb00" fill-rule="evenodd" stroke="#34120c" stroke-width="4.5" stroke-linecap="square" stroke-linejoin="bevel" d="M0 99.6468C20.7509 81.3899 34.9835 67.9028 42.6979 59.1856C65.6409 33.26 78.2345 9.01148 90.3491 2.29232C97.4315 -1.63586 103.025 -1.41311 104.971 10.1673C106.497 19.2432 76.8836 53.2848 16.1325 112.292Z" sodipodi:nodetypes="cssscc"/><path id="shape63" transform="matrix(-0.50775218052034 0.079068278425975 -0.0844839442672126 -0.682281858231258 288.978491956849 274.305109827994)" fill="#f5c614" fill-rule="evenodd" stroke-opacity="0" stroke="#000000" stroke-width="0" stroke-linecap="square" stroke-linejoin="bevel" d="M6.36273 0.471987C8.64226 -1.61487 12.9485 3.84379 14.1962 4.70103C15.3695 5.50722 14.5746 6.47578 15.666 10.342C16.4073 12.9679 16.3602 19.6542 16.6085 26.225C16.7374 29.6347 16.3785 35.3757 16.2605 43.5321L12.059 51.5682L8.58671 40.606L3.45828 52.4975L0.353492 42.0946C0.46877 33.0117 -0.0652326 20.3114 0.00669356 16.5349C0.0580769 13.837 0.789438 12.7029 1.39785 6.4568C1.66653 3.69855 5.74789 1.03487 6.36273 0.471987Z" sodipodi:nodetypes="cssscccccsss"/><path id="shape73" transform="matrix(-0.471179550403995 0.226442652597019 -0.241952510192022 -0.633138116473987 288.984402219288 232.253723126802)" fill="#f5c614" fill-rule="evenodd" stroke-opacity="0" stroke="#000000" stroke-width="0" stroke-linecap="square" stroke-linejoin="bevel" d="M11.4366 0C11.7706 0.0249065 9.76384 2.93527 9.92386 10.3432L16.7696 4.56043L16.3659 13.8234C20.0913 9.4116 23.09 5.01555 23.4947 5.31051C24.2228 5.84111 19.946 14.3919 17.0876 21.4838C14.6807 27.4556 12.9556 30.7243 11.0561 32.2874C9.47054 33.5923 6.11338 34.4473 3.04497 32.9181C1.00877 29.9249 -0.438053 29.8004 0.121011 27.7079C1.24626 23.4962 5.3214 15.5535 6.02097 13.8118Z" sodipodi:nodetypes="ccccssscscc"/><path id="shape14" transform="matrix(0.512615101698653 0.00409142843597653 -0.00304482917836261 0.688816311504454 218.448127985958 35.2080273316704)" fill="#ffeb00" fill-rule="evenodd" stroke="#34120c" stroke-width="4.5" stroke-linecap="round" stroke-linejoin="miter" stroke-miterlimit="2.00099992752075" d="M27.9435 193.776C27.1453 171.44 32.488 148.945 33.7755 126.474C33.9838 122.838 23.3224 120.167 24.7841 107.816L28.5959 100.865L0 96.0862L26.3891 93.8359L11.8703 76.0937L35.3674 90.6832C36.3198 79.302 36.0864 58.2567 38.0613 44.6092C40.2263 29.6489 49.7807 19.0091 54.3849 15.0177C68.453 2.82184 85.7283 -2.88588 86.9471 1.43252C89.9168 11.9551 91.4806 22.7707 91.6385 33.8791L96.4563 34.2281C98.3227 23.6263 106.983 18.8212 122.438 19.8126C115.528 27.6855 112.298 31.8925 112.747 32.4336C113.529 33.3747 119.357 28.1735 124.291 25.6658C126.148 29.0431 128.005 32.4205 129.862 35.7979L140.298 36.0535C142.169 27.0472 147.046 19.2235 154.929 12.5824C166.755 2.62081 186.084 -1.35756 191.213 1.02623C193.306 7.782 194.664 21.3592 195.286 41.7579C202.574 101.14 206.24 143.501 206.283 168.841C206.291 173.321 212.621 207.143 206.945 218.85C207.889 276.267 205.23 269.349 203.666 269.95C187.132 276.312 183.507 267.538 162.045 226.484C136.57 231.685 110.586 236.718 74.6409 226.09C63.1457 265.356 68.592 266.656 59.8286 271.639C54.3184 274.772 31.7428 261.001 31.2542 214.572C29.1964 204.885 28.0928 197.953 27.9435 193.776Z" sodipodi:nodetypes="csccccccscscccsccczccscsccscs"/><g id="group012" transform="matrix(0.512624144451125 0 0 0.6888284625226 271.155373621373 72.6986714732707)" fill="none">
  <ellipse id="shape0121" transform="matrix(0.934840131477521 0.00555275976067595 -0.00593969131442836 0.999982359877957 0.283323275698194 -3.5527136788005e-14)" rx="40.2" ry="23.85" cx="40.2" cy="23.85" fill="url(#gradient0)" fill-rule="evenodd" stroke="#34120c" stroke-width="4.5" stroke-linecap="square" stroke-linejoin="bevel"/>
  <ellipse id="shape0211" transform="matrix(0.888203570538468 0.00527574809821192 -0.00628044889267508 1.05735092487623 11.5507541279335 7.91390370176766)" rx="29.0744132587731" ry="14.223180971657" cx="29.0744132587731" cy="14.223180971657" fill="#34120c" fill-rule="evenodd" stroke="#34120c" stroke-width="4.5" stroke-linecap="square" stroke-linejoin="bevel"/>
 </g><path id="shape33" transform="matrix(0.512615101698653 0.00409142843597653 -0.00304482917836261 0.688816311504454 231.232204397415 92.7817299296015)" fill="none" stroke="#34120c" stroke-width="4.5" stroke-linecap="round" stroke-linejoin="miter" stroke-miterlimit="2.00099992752075" d="M0 31.6426C13.6468 58.9362 49.2257 33.2838 69.6512 29.1987C78.2148 27.4859 92.6576 48.2572 118.935 41.0905C128.581 38.4599 143.861 30.8569 150.78 23.6535L181.297 22.5999L159.364 14.7136L182.842 0L157.224 5.81499" sodipodi:nodetypes="cccccccc"/><g id="group13" transform="matrix(0.512624144451125 0 0 0.6888284625226 231.553444215299 71.9472105447852)" fill="none">
  <ellipse id="shape0311" transform="matrix(0.934840131477521 0.00555275976067595 -0.00593969131442836 0.999982359877957 0.28332327569791 -6.3948846218409e-14)" rx="40.2" ry="23.85" cx="40.2" cy="23.85" fill="url(#gradient1)" fill-rule="evenodd" stroke="#34120c" stroke-width="4.5" stroke-linecap="square" stroke-linejoin="bevel"/>
  <ellipse id="shape01111" transform="matrix(0.888203570538468 0.00527574809821192 -0.00628044889267508 1.05735092487623 14.3983229193034 7.52435268863755)" rx="29.0744132587731" ry="14.223180971657" cx="29.0744132587731" cy="14.223180971657" fill="#34120c" fill-rule="evenodd" stroke="#34120c" stroke-width="4.5" stroke-linecap="square" stroke-linejoin="bevel"/>
 </g><path id="shape43" transform="matrix(0.350889764554915 -0.14108051352341 0.146625461333246 0.502646042736667 243.931777487688 159.54125268164)" fill="#f5c614" fill-rule="evenodd" stroke-opacity="0" stroke="#000000" stroke-width="0" stroke-linecap="square" stroke-linejoin="bevel" d="M57.7664 16.2722L31.7308 0L0 19.1199C8.54291 24.8151 17.0858 30.5104 25.6287 36.2057L7.7293 60.614L32.9512 51.2575L32.5444 64.2753L61.2829 53.3261L72.4423 71.7332L67.5297 46.3758L42.3078 50.4439L47.5962 41.901L30.1036 43.935L40.6805 30.5104L21.5607 17.8994L33.358 10.9837Z" sodipodi:nodetypes="ccccccccccccccccc"/><path id="shape53" transform="matrix(0.512615101698653 0.00409142843597653 -0.00304482917836261 0.688816311504454 256.724915896675 140.530826607052)" fill="#f5c614" fill-rule="evenodd" stroke-opacity="0" stroke="#000000" stroke-width="0" stroke-linecap="square" stroke-linejoin="bevel" d="M0 5.21502L13.0376 0L22.8157 9.77817L41.0683 9.77817L15.6451 19.2304Z" sodipodi:nodetypes="cccccc"/><path id="shape83" transform="matrix(0.49897784496718 0.157878980368036 -0.117493079396854 0.67049151996069 294.710069058356 114.95937855929)" fill="#ffffff" fill-rule="evenodd" stroke="#34120c" stroke-width="4.5" stroke-linecap="square" stroke-linejoin="round" d="M12.8034 0C10.4755 7.75963 8.14761 15.5193 5.81971 23.2789L0 9.31154C4.81473 8.53044 7.98867 0.781097 12.8034 0Z" sodipodi:nodetypes="cccc"/><path id="shape22" transform="matrix(1.7158748352652 -0.195945820131184 0.169572255803449 1.98274476119613 257.456582716596 113.469925828443)" fill="#7e1c36" fill-rule="evenodd" stroke="#34120c" stroke-width="1.509" stroke-linecap="square" stroke-linejoin="bevel" d="M0 2.07562C5.72225 11.8453 3.14538 10.3293 4.00614 13.3173C4.8547 14.5789 5.53602 15.3141 6.05009 15.5228C8.15181 16.3763 10.2908 15.1681 11.1756 14.7483C13.3153 13.7331 16.3163 10.9733 20.1784 6.46895C18.4093 7.10318 10.6284 6.81339 6.37096 0Z" sodipodi:nodetypes="ccssccc"/>
</svg>