<svg width="91" height="105" viewBox="0 0 91 105" fill="none" xmlns="http://www.w3.org/2000/svg">
<ellipse cx="13" cy="43.5002" rx="12.1287" ry="9.22388" fill="#261B31"/>
<ellipse cx="14.5259" cy="56.5002" rx="12.1287" ry="9.22388" fill="#261B31"/>
<path d="M43.6689 12.2642L43.0524 8.13489L38.8793 8.00496L38.7237 13.0025C38.8793 8.00496 38.8778 8.00491 38.8763 8.00487L38.8731 8.00477L38.8661 8.00456L38.8497 8.00411L38.8074 8.0031C38.775 8.0024 38.7343 8.00167 38.6856 8.0011C38.5883 7.99995 38.4589 7.99942 38.3005 8.00093C37.9842 8.00394 37.5496 8.01513 37.022 8.04629C35.9732 8.10822 34.5215 8.25105 32.8796 8.57857C29.7178 9.20928 25.2397 10.6445 21.8028 14.1162C15.9214 20.0572 14.4398 27.6078 13.2021 33.9155C13.0075 34.9072 12.8189 35.8683 12.6202 36.7875C9.56826 50.9059 7.53147 63.3167 8.09329 78.1897C8.24399 82.1791 8.78034 87.2129 10.6406 91.4027C11.5931 93.5481 12.9992 95.7184 15.1118 97.365C17.2996 99.0702 19.9766 100 23.0149 100H23.1888H23.3616H23.5335H23.7043H23.8741H24.043H24.2108H24.3776H24.5435H24.7084H24.8723H25.0352H25.1971H25.3581H25.5182H25.6772H25.8353H25.9925H26.1487H26.304H26.4583H26.6117H26.7642H26.9158H27.0664H27.2161H27.3649H27.5128H27.6598H27.8059H27.9511H28.0953H28.2387H28.3813H28.5229H28.6637H28.8035H28.9426H29.0807H29.218H29.3544H29.49H29.6247H29.7586H29.8917H30.0239H30.1552H30.2858H30.4155H30.5444H30.6725H30.7998H30.9262H31.0519H31.1767H31.3008H31.424H31.5465H31.6682H31.7891H31.9092H32.0286H32.1472H32.265H32.3821H32.4984H32.614H32.7288H32.8428H32.9562H33.0687H33.1806H33.2917H33.4021H33.5118H33.6208H33.729H33.8366H33.9434H34.0495H34.155H34.2597H34.3638H34.4672H34.5699H34.6719H34.7732H34.8739H34.9739H35.0733H35.172H35.27H35.3674H35.4642H35.5603H35.6558H35.7506H35.8449H35.9385H36.0314H36.1238H36.2156H36.3067H36.3972H36.4872H36.5765H36.6653H36.7534H36.841H36.928H37.0144H37.1003H37.1856H37.2703H37.3545H37.4381H37.5211H37.6036H37.6856H37.767H37.8479H37.9283H38.0081H38.0874H38.1662H38.2445H38.3222H38.3995H38.4762H38.5525H38.6283H38.7035H38.7783H38.8526H38.9264H38.9998H39.0726H39.145H39.217H39.2885H39.3595H39.4301H39.5002H39.5699H39.6391H39.7079H39.7763H39.8443H39.9118H39.9789H40.0456H40.1119H40.1778H40.2433H40.3084H40.373H40.4373H40.5012H40.5648H40.6279H40.6907H40.7531H40.8151H40.8768H40.9381H40.9991H41.0597H41.12H41.1799H41.2395H41.2987H41.3577H41.4162H41.4745H41.5325H41.5901H41.6474H41.7045H41.7612H41.8176H41.8737H41.9296H41.9851H42.0404H42.0954H42.1501H42.2046H42.2588H42.3127H42.3663H42.4198H42.4729H42.5258H42.5785H42.6309H42.6831H42.7351H42.7869H42.8384H42.8897H42.9408H42.9917H43.0424H43.0928H43.1431H43.1932H43.2431H43.2928H43.3424H43.3917H43.4409H43.4899H43.5387H43.5874H43.636H43.6843H43.7326H43.7806H43.8286H43.8764H43.924H43.9716H44.019H44.0663H44.1135H44.1605H44.2075H44.2543H44.3011H44.3477H44.3943H44.4408H44.4872H44.5335H44.5797H44.6259H44.6719H44.718H44.7639H44.8098H44.8557H44.9015H44.9472H44.993H45.0386H45.0843H45.1299H45.1755H45.2211H45.2666H45.3122H45.3577H45.4033H45.4488H45.4943H45.5399H45.5854H45.631H45.6766H45.7222H45.7679H45.8135H45.8593H45.905H45.9508H45.9966H46.0425H46.0885H46.1345H46.1806H46.2267H46.2729H46.3192H46.3656H46.4121H46.4586H46.5052H46.552H46.5988H46.6457H46.6928H46.74H46.7872H46.8346H46.8821H46.9298H46.9776H47.0255H47.0735H47.1217H47.1701H47.2186H47.2673H47.3161H47.3651H47.4142H47.4635H47.513H47.5627H47.6126H47.6627H47.7129H47.7633H47.814H47.8648H47.9159H47.9672H48.0187H48.0704H48.1223H48.1745H48.2269H48.2795H48.3324H48.3855H48.4389H48.4925H48.5464H48.6005H48.6549H48.7096H48.7646H48.8198H48.8753H48.9311H48.9872H49.0436H49.1002H49.1572H49.2145H49.2721H49.33H49.3882H49.4467H49.5056H49.5648H49.6243H49.6842H49.7444H49.805H49.8659H49.9271H49.9888H50.0507H50.1131H50.1758H50.2389H50.3023H50.3662H50.4304H50.495H50.5601H50.6255H50.6913H50.7575H50.8242H50.8912H50.9587H51.0266H51.0949H51.1636H51.2328H51.3024H51.3725H51.443H51.5139H51.5853H51.6572H51.7295H51.8023H51.8756H51.9493H52.0235H52.0982H52.1734H52.2491H52.3253H52.402H52.4791H52.5568H52.635H52.7137H52.7929H52.8727H52.9529H53.0337H53.1151H53.197H53.2794H53.3624H53.4459H53.5299H53.6146H53.6998H53.7855H53.8719H53.9588H54.0463H54.1343H54.223H54.3122H54.4021H54.4925H54.5836H54.6752H54.7675H54.8603H54.9538H55.048H55.1427H55.2381H55.3341H55.4308H55.5281H55.626H55.7246H55.8238H55.9238H56.0243H56.1256H56.2275H56.3301H56.4333H56.5373H56.6419H56.7473H56.8533H56.96H57.0674H57.1756H57.2844H57.394H57.5043H57.6153H57.727H57.8395H57.9527H58.0666H58.1813H58.2968H58.4129H58.5299H58.6476H58.7661H58.8853H59.0053H59.1261H59.2476H59.37H59.4931H59.6171H59.7418H59.8673H59.9936H60.1208H60.2487H60.3775H60.5071H60.6375H60.7687H60.9008H61.0337H61.1674H61.302H61.4375H61.5738H61.7109H61.8489H61.9878H62.1276H62.2682H62.4097H62.552H62.6953H62.8394H62.9845H63.1304H63.2773H63.425H63.5736H63.7232H63.8737H64.0251H64.1774H64.3307H64.4849H64.64H64.7961H64.9531H65.111H65.2699H65.4298H65.5906H65.7524H65.9152H66.079H66.2437H66.4094H66.576H66.7437H66.9124H67.0821H67.2527H67.4244H67.5971H67.7708H67.9455H68.1212H68.298H68.4757H68.6546H68.8344C68.8987 100 68.966 100 69.0363 100C70.904 100.003 74.8427 100.008 78.3801 98.4521C80.3389 97.5907 82.3353 96.1928 83.8112 93.9651C85.2904 91.7323 86 89.0384 86 86.0009L86 84.9925C86.0006 61.8644 86.0009 50.1673 82.4456 26.2644C82.1469 24.2561 81.7825 20.8719 81.4861 17.8968C81.3398 16.4291 81.2132 15.0931 81.1232 14.1238C81.0782 13.6394 81.0424 13.2473 81.0179 12.9768L80.9899 12.6661L80.9827 12.5862L80.9809 12.5664L80.9805 12.5616L80.9804 12.5605L80.9804 12.5603L80.4831 6.95921L74.9785 8.10799L76 13.0025C74.9785 8.10799 74.9781 8.10808 74.9776 8.10818L74.9765 8.10842L74.9735 8.10903L74.9651 8.11081L74.9379 8.11654L74.8436 8.13664C74.7635 8.15383 74.6493 8.17855 74.5049 8.21046C74.2162 8.27424 73.8055 8.36696 73.3025 8.48578C72.2995 8.72271 70.9147 9.06695 69.391 9.49619C66.5477 10.2972 62.5175 11.5805 59.836 13.2688C57.1296 14.9727 55.0243 17.75 53.7696 19.6136C53.5319 19.9666 53.3104 20.309 53.1065 20.6337H44.9185L43.6689 12.2642Z" fill="url(#paint0_linear_374_1447)" stroke="#261B31" stroke-width="10"/>
<path d="M13.6546 51C13.6546 51 6.72065 55.5688 11.9548 59.4459C21.1628 66.2665 35.8123 57.2677 35.8123 57.2677C35.8123 57.2677 40.8076 66.2665 57.3829 59.4459C63.808 56.8021 62.9634 51 62.9634 51" stroke="#261B31" stroke-width="3" stroke-linecap="round"/>
<ellipse cx="15.1658" cy="55.46" rx="2.92383" ry="3.85938" fill="url(#paint1_linear_374_1447)"/>
<path d="M37.5 44C37.5 46.035 36.1322 48.1262 33.3898 49.7883C30.675 51.4336 26.8286 52.5 22.5 52.5C18.1714 52.5 14.325 51.4336 11.6102 49.7883C8.86785 48.1262 7.5 46.035 7.5 44C7.5 41.965 8.86785 39.8738 11.6102 38.2117C14.325 36.5664 18.1714 35.5 22.5 35.5C26.8286 35.5 30.675 36.5664 33.3898 38.2117C36.1322 39.8738 37.5 41.965 37.5 44Z" fill="#FFF7D0" stroke="#261B31" stroke-width="3"/>
<path d="M68.5 44C68.5 46.035 67.1322 48.1262 64.3898 49.7883C61.675 51.4336 57.8286 52.5 53.5 52.5C49.1714 52.5 45.325 51.4336 42.6102 49.7883C39.8678 48.1262 38.5 46.035 38.5 44C38.5 41.965 39.8678 39.8738 42.6102 38.2117C45.325 36.5664 49.1714 35.5 53.5 35.5C57.8286 35.5 61.675 36.5664 64.3898 38.2117C67.1322 39.8738 68.5 41.965 68.5 44Z" fill="#FFF7D0" stroke="#261B31" stroke-width="3"/>
<ellipse cx="20" cy="43.5" rx="10" ry="5.5" fill="#261B31"/>
<ellipse cx="56" cy="43.5" rx="10" ry="5.5" fill="#261B31"/>
<defs>
<linearGradient id="paint0_linear_374_1447" x1="55.8808" y1="13" x2="51.6143" y2="179.011" gradientUnits="userSpaceOnUse">
<stop stop-color="#FFDF43"/>
<stop offset="1" stop-color="#FF00AA"/>
</linearGradient>
<linearGradient id="paint1_linear_374_1447" x1="15.1658" y1="51.6006" x2="15.1658" y2="59.3193" gradientUnits="userSpaceOnUse">
<stop stop-color="#FFA75C"/>
<stop offset="1" stop-color="#FFA060"/>
</linearGradient>
</defs>
</svg>
